<?xml version="1.0" encoding="UTF-8"?>
<svg width="20px" height="25px" viewBox="0 0 20 25" version="1.1" xmlns="http://www.w3.org/2000/svg" xmlns:xlink="http://www.w3.org/1999/xlink">
    <!-- Generator: Sketch 63.1 (92452) - https://sketch.com -->
    <title>anadir_user_icon_blue</title>
    <desc>Created with Sketch.</desc>
    <g id="anadir_user_icon_blue" stroke="none" stroke-width="1" fill="none" fill-rule="evenodd">
        <g id="icons-new/principales/usuario" fill="#00A9E0">
            <path d="M10.0177639,11.0420323 C8.25831944,11.0420323 6.88554167,10.586318 5.93748611,9.68773416 C4.95179167,8.75334907 4.45206944,7.36680248 4.45206944,5.56649193 C4.45206944,3.76563478 4.951375,2.37690186 5.936375,1.43896398 C6.88595833,0.534504348 8.25915278,0.0760571429 10.0177639,0.0760571429 C11.7770694,0.0760571429 13.1523472,0.534231056 14.1054028,1.43787081 C15.0959583,2.37690186 15.5981806,3.76604472 15.5981806,5.56635528 C15.5981806,7.3662559 15.0955417,8.75307578 14.1042917,9.68855404 C13.1527639,10.5865913 11.7777639,11.0420323 10.0177639,11.0420323" id="Fill-1896"></path>
            <path d="M9,19.6000001 L9.00024444,19.9614792 C9.0017057,20.6756101 9.01190209,21.3521936 9.08305097,21.9780588 L0.754638889,21.978246 C0.404916667,21.978246 0.121444444,21.6992149 0.121444444,21.3550037 L0.121444444,19.5318733 C0.121444444,17.7879975 0.673111111,16.2996497 1.71713889,15.2277988 C2.85561111,14.0587925 4.54880556,13.4408795 6.61352778,13.4408795 L13.2258161,13.4399093 C10.7537872,14.3932903 9,16.7918358 9,19.6000001 Z" id="Combined-Shape"></path>
        </g>
        <g id="icons/mas" transform="translate(12.000000, 16.500000)" stroke="#00A9E0" stroke-linecap="round" stroke-linejoin="round" stroke-width="1.61568006">
            <g id="Group" transform="translate(0.300000, 0.300000)">
                <line x1="0.207467573" y1="2.90454603" x2="6.43149478" y2="2.90454603" id="Line-2"></line>
                <line x1="3.31948118" y1="6.2240272" x2="3.31948118" y2="0" id="Line-2"></line>
            </g>
        </g>
    </g>
</svg>