<svg xmlns="http://www.w3.org/2000/svg" width="41" height="41" viewBox="0 0 41 41">
    <path fill="#00A9E0" fill-rule="evenodd" d="M38.17 21.056c-.469.466-7.173 6.442-11.68 10.448l-3.524 1.17 1.157-3.463c1.896-1.681 11.086-9.833 11.726-10.476.364-.366.78-.534 1.234-.501.401.03.808.216 1.091.5.31.312.502.775.5 1.207 0 .41-.17.785-.503 1.115zM20.619 32.36H7.894c-.642 0-1.163-.523-1.163-1.168 0-.645.52-1.168 1.163-1.168h13.505l-.781 2.336zM7.894 22.935h19.785L25.05 25.27H7.894c-.642 0-1.163-.523-1.163-1.168 0-.645.52-1.168 1.163-1.168zm0-7.09h19.845c.642 0 1.163.524 1.163 1.169s-.52 1.168-1.163 1.168H7.894c-.642 0-1.163-.523-1.163-1.168 0-.645.52-1.168 1.163-1.168zm0-7.088h19.845c.642 0 1.163.523 1.163 1.168 0 .645-.52 1.168-1.163 1.168H7.894c-.642 0-1.163-.523-1.163-1.168 0-.645.52-1.168 1.163-1.168zm31.924 8.325c-.675-.678-1.61-1.108-2.565-1.178-.601-.044-1.19.056-1.736.286V7.93c0-2.377-.65-4.39-1.932-5.753C32.225.733 30.26 0 27.74 0H7.778C5.258 0 3.29.733 1.932 2.178.65 3.541 0 5.554 0 7.931v25.255c0 2.377.65 4.273 1.932 5.636C3.292 40.267 5.258 41 7.778 41h19.961c2.52 0 4.487-.733 5.846-2.178 1.282-1.363 1.932-3.259 1.932-5.636v-6.601c2.167-1.937 4.013-3.593 4.287-3.866.78-.773 1.193-1.73 1.196-2.77.003-1.048-.439-2.12-1.182-2.867z"/>
</svg>
