<svg xmlns="http://www.w3.org/2000/svg" width="18" height="18" viewBox="0 0 18 18">
    <g fill="#00A9E0" fill-rule="evenodd">
        <path d="M17.792 4.471a.506.506 0 00-.4-.196H4.682c-.208-1.173-.362-2.276-.367-2.301C4.118.866 3.078.062 1.84.062H.615a.508.508 0 00-.507.51c0 .282.227.51.507.51H1.84c.734 0 1.37.46 1.478 1.071.207 1.168 1.362 7.924 1.48 8.675.146.934.492 1.665 1.028 2.174.512.485 1.184.742 1.943.742h5.434c.75 0 1.386-.257 1.892-.766.479-.481.8-1.177 1.068-2.101.12-.41 1.562-5.408 1.72-5.968a.499.499 0 00-.091-.438M7.769 17.97c-.454 0-.817-.129-1.08-.384-.276-.267-.415-.643-.415-1.12 0-.475.14-.851.414-1.118.264-.255.627-.385 1.08-.385.454 0 .817.13 1.08.385.276.267.415.643.415 1.119s-.14.852-.414 1.119c-.264.255-.627.385-1.08.385M12.709 17.97c-.454 0-.817-.129-1.08-.384-.276-.267-.415-.643-.415-1.12 0-.475.14-.851.414-1.118.264-.255.627-.385 1.08-.385.454 0 .817.13 1.08.385.276.267.415.643.415 1.119s-.14.852-.414 1.119c-.264.255-.627.385-1.08.385"/>
    </g>
</svg>
