<svg xmlns="http://www.w3.org/2000/svg" width="62" height="49" viewBox="0 0 62 49">
    <g fill="#00A9E0" fill-rule="evenodd">
        <path d="M10.805 3.805c-2.522 0-4.392.603-5.555 1.792-1.126 1.152-1.697 2.959-1.697 5.37V30.59c0 4.947 2.305 7.25 7.253 7.25h.001l40.02.028c4.948 0 7.253-2.304 7.253-7.25V10.995c0-2.412-.571-4.22-1.697-5.37-1.164-1.19-3.033-1.793-5.557-1.793l-40.02-.027zM50.826 41.37l-40.02-.027c-3.5 0-6.214-.976-8.068-2.899C.955 36.595.05 33.953.05 30.59V10.968C.05 4.09 3.87.303 10.806.303L50.828.33c6.935 0 10.754 3.788 10.754 10.665v19.623c0 3.362-.904 6.004-2.687 7.854-1.855 1.923-4.57 2.898-8.069 2.898zM59.831 48.281L1.8 48.254c-.967 0-1.751-.785-1.75-1.752 0-.967.784-1.75 1.75-1.75h.001l58.03.027c.967 0 1.75.785 1.75 1.752s-.784 1.75-1.75 1.75"/>
    </g>
</svg>
