<svg xmlns="http://www.w3.org/2000/svg" width="21" height="21" viewBox="0 0 21 21">
    <path fill="#F59C00" fill-rule="evenodd" d="M10.497 0c3.336 0 5.931.871 7.714 2.59C20.061 4.373 21 7.036 21 10.503c0 3.466-.938 6.128-2.789 7.91C16.429 20.13 13.833 21 10.497 21c-3.335 0-5.93-.87-7.71-2.587C.936 16.631 0 13.97 0 10.503c0-3.468.938-6.13 2.786-7.913C4.568.87 7.162 0 10.497 0zm.018 8.885h-.03c-.884 0-1.6.716-1.6 1.6v5.684c0 .884.716 1.6 1.6 1.6h.03c.884 0 1.6-.716 1.6-1.6v-5.684c0-.884-.716-1.6-1.6-1.6zm0-4.847h-.03l-.146.007c-.815.074-1.454.759-1.454 1.593v.031l.006.146c.074.815.76 1.454 1.594 1.454h.03l.146-.006c.815-.074 1.454-.76 1.454-1.594v-.03l-.006-.146c-.074-.816-.76-1.455-1.594-1.455z"/>
</svg>
