<svg xmlns="http://www.w3.org/2000/svg" width="23" height="24" viewBox="0 0 23 24">
    <g fill="none" fill-rule="evenodd">
        <path fill="#00A9E0" d="M.65 20.546l1.922 1.934-.994.415c-.857.303-1.225.318-1.444.099-.226-.227-.148-.633.098-1.45l.418-.998zM21.358.746l.898.903c.992.996.992 2.61 0 3.605l-4.294 4.313-11.06 11.105-3.479 1.452-2.416-2.43 1.458-3.477L12.65 5.99l1.447-1.495.36-.319L18.25.367c.976-.593 2.264-.467 3.108.38z"/>
        <path stroke="#00A9E0" stroke-linecap="round" stroke-linejoin="round" d="M7.117 23.066L20.87 22.714"/>
    </g>
</svg>
