<svg xmlns="http://www.w3.org/2000/svg" width="215" height="42" viewBox="0 0 215 42">
    <path fill="#5BC500" fill-rule="evenodd" d="M149.158 12.52h-3.461c-.288 0-.426.112-.426.395l.004 19.455c0 .283.137.395.425.395h3.46c.289 0 .428-.112.428-.395l-.005-19.455c0-.283-.136-.395-.425-.395zm-32.085 13.066c-.335 3.283-1.987 3.797-4.643 3.797h-.112c-2.655 0-4.31-.514-4.64-3.797-.105-.991-.186-1.812-.186-2.953 0-1.144.081-1.964.187-2.955.329-3.283 1.984-3.796 4.639-3.796h.112c2.656 0 4.308.513 4.643 3.796.104.991.185 1.811.185 2.955 0 1.141-.081 1.962-.185 2.953zm3.888 2.63c.416-1.377.648-2.96.648-5.583 0-2.622-.232-4.211-.648-5.587-1.051-3.516-3.823-4.915-8.318-4.915h-.535c-4.495 0-7.268 1.4-8.323 4.915-.412 1.376-.646 2.965-.646 5.587s.234 4.206.646 5.584c1.055 3.516 3.828 4.919 8.323 4.919h.535c4.495 0 7.267-1.403 8.318-4.92zM91.549 12.132h-1.045c-3.005 0-5 .8-5.968 1.987h-.023c-.967-1.187-3.087-1.987-6.093-1.987h-1.073c-3.388 0-6.165 1.18-7.28 3.601-.48 1.041-.638 2.44-.638 3.949V32.3c0 .278.161.464.445.464h3.412c.282 0 .442-.186.442-.463l.007-10.512c0-1.505.036-2.598.112-3.272.196-1.763 1.503-2.62 3.993-2.62h.285c2.49 0 3.857.857 4.053 2.62.076.674.112 1.767.112 3.272v10.516c0 .278.17.46.451.46h3.422c.28 0 .44-.22.44-.497l.004-10.479c0-1.505.037-2.598.112-3.272.195-1.763 1.562-2.62 4.052-2.62h.286c2.49 0 3.795.857 3.991 2.62.075.674.11 1.767.11 3.272v10.516c0 .287.167.46.448.46h3.42c.282 0 .442-.22.442-.497V19.681c0-1.51-.161-2.908-.64-3.949-1.113-2.42-3.893-3.601-7.279-3.601zm88.555 20.634c.296 0 .458-.16.458-.421v-2.887c0-.26-.162-.423-.458-.423h-.458c-1.374 0-2.219-.331-2.734-.876-.684-.721-.825-1.891-.825-3.279v-8.773h3.808c.287 0 .429-.111.429-.393V12.91c0-.282-.142-.393-.43-.393h-3.807V8.883c0-.282-.142-.395-.43-.395h-3.46c-.289 0-.421.113-.421.395v16.231c0 2.825.559 4.628 1.8 5.862 1.161 1.157 2.98 1.79 5.612 1.79h.916zm-21.296-9.08c.932.347 1.707.633 2.632.962 1.979.705 2.826 1.264 2.826 2.476 0 1.568-1.319 2.401-4.305 2.401h-.108c-1.684 0-3.614-.332-5.31-.875-.35-.113-.543.02-.543.374v2.586c0 .324.056.522.418.648 1.62.56 3.853.873 5.677.873h.14c5.302 0 8.177-2.362 8.177-6.186v-.056c0-1.474-.483-2.808-1.386-3.697-.885-.872-2.229-1.548-4.302-2.32-1.107-.413-1.967-.73-2.732-1.012-1.724-.63-2.208-1.224-2.208-2.112 0-1.468 1.437-2.042 3.747-2.042l.177.001c1.334 0 2.948.192 4.907.548.363.066.568-.013.568-.389V13.21c0-.35-.094-.448-.454-.525-1.274-.271-3.584-.554-4.881-.554h-.313c-2.706 0-4.714.504-6.05 1.672-1.088.949-1.815 2.384-1.815 4.099l-.001.123c0 1.589.55 2.87 1.493 3.743.88.815 2.065 1.33 3.646 1.918zm-27.83 9.08h3.747c.323 0 .465-.105.597-.353 2.428-4.578 6.14-12.4 6.393-19.494.01-.282-.108-.403-.474-.403h-3.49c-.408 0-.52.132-.543.495-.161 2.584-.708 5.585-1.502 8.266-.821 2.772-1.865 5.411-2.865 7.373-1-1.962-2.045-4.601-2.865-7.373-.8-2.698-1.35-5.72-1.506-8.316-.024-.37-.221-.444-.579-.444h-3.516c-.372 0-.476.174-.448.551.493 6.95 2.65 12.35 6.393 19.36.13.247.329.338.657.338zm82.985-20.636h-2.317c-3.328 0-5.927 1.155-7.04 3.575-.481 1.043-.633 2.44-.633 3.949V32.37c0 .283.138.395.426.395h3.46c.288 0 .418-.112.418-.395V21.732c0-1.503.03-2.598.108-3.273.196-1.763 1.264-2.594 3.753-2.594h1.842c.296 0 .426-.152.426-.44v-2.857c0-.294-.143-.439-.443-.439zm-17.989 13.366c0 1.519-.05 2.412-.6 3.045-.583.67-1.618.99-3.018.99h-.681c-2.586 0-4.09-1.04-4.09-3.035 0-.913.36-1.727.915-2.207.656-.567 1.617-.843 3.264-.843h.364c1.247 0 2.67.125 3.846.436v1.614zM37.378 6.358c2.02-4.326 5.87-6.557 9.224-6.344 3.03.193 5.393 2.376 6.864 5.783 1.539 3.561 2.42 7.677 2.699 12.191.24 3.86.102 6.395-.429 10.168-.104.747-.298 1.8-.527 2.488-.577 1.746-2.024 3.19-3.828 2.933-1.692-.24-2.343-1.745-2.454-3.251-.057-.767.082-2.147.158-2.833.21-1.89.479-4.465.46-6.799-.023-2.64-.48-4.435-2.313-5.024-1.975-.636-4.32 1.445-6.077 5.33-1.528 3.381-2.478 6.68-3.872 11.097-1.862 5.903-5.477 7.778-10.381 7.982-4.811.2-7.806-2.713-9.43-5.434-1.798-3.014-4.002-6.96-5.288-9.187-1.077-1.866-2.212-3.354-3.565-3.056-.805.177-2.017.58-1.89 3.66.095 2.301 1.184 5.533 2.003 8.212.266.872.74 2.443.904 3.516.34 2.221-.598 3.194-1.415 3.598-.75.37-2.533.456-3.605-.902-.372-.47-.854-1.238-1.165-1.974C2.548 36.38 1.21 32.506.452 28.02c-.82-4.864-.45-8.95.508-12.871C3.16 6.15 7.972 4.863 10.58 4.82c3.3-.052 4.884 1.67 6.272 3.045 1.476 1.464 4.236 5.821 5.63 8.11 1.597 2.625 3.778 4.466 6.309 4.2 2.07-.219 3.417-1.525 4.333-3.644.904-2.09 2.392-6.184 4.254-10.174zm153.785 5.773c2.267 0 4.02.332 5.172.829 2.4 1.035 3.944 2.868 3.944 6.833v5.8c0 2.849-.563 4.63-2.015 5.833-1.264 1.046-3.363 1.705-5.572 1.705h-1c-5.62 0-8.387-2.475-8.387-6.49v-.17c0-1.994.73-3.557 1.838-4.595 1.444-1.349 3.707-1.932 6.115-1.932h.384c1.447 0 3.023.183 4.332.46v-.558c0-1.886-.428-2.754-1.293-3.338-.868-.585-2.31-.75-4.094-.75h-.178c-1.26 0-2.9.167-4.49.406-.364.055-.531-.057-.531-.38v-2.591c0-.353.12-.51.426-.565 1.811-.328 3.692-.497 5.074-.497z"/>
</svg>
