<?xml version="1.0" encoding="UTF-8"?>
<svg width="111px" height="72px" viewBox="0 0 111 72" version="1.1" xmlns="http://www.w3.org/2000/svg" xmlns:xlink="http://www.w3.org/1999/xlink">
    <!-- Generator: Sketch 63.1 (92452) - https://sketch.com -->
    <title>movilEspera</title>
    <desc>Created with Sketch.</desc>
    <g id="movilEspera" stroke="none" stroke-width="1" fill="none" fill-rule="evenodd">
        <g id="icono_telefono" fill="#00A9E0">
            <g id="Group-6">
                <g id="movil-duerme">
                    <g id="Group" transform="translate(78.709091, 0.000000)">
                        <path d="M9.5773539,20 C10.8882711,20 12.2667614,19.8951782 13.7128247,19.6855346 C15.158888,19.475891 15.9359781,19.1474493 16.044095,18.7002096 C16.0981534,18.4765898 16.1251826,18.2809224 16.1251826,18.1132075 C16.1251826,17.7638015 15.9832792,17.5890985 15.6994724,17.5890985 C15.5372971,17.5890985 15.2805195,17.6380154 14.9291396,17.7358491 C13.1857549,18.1551363 11.8275365,18.3647799 10.8544846,18.3647799 L10.8544846,18.3647799 L10.2057833,18.3647799 C9.77331575,18.3647799 9.42869318,18.3508036 9.17191558,18.3228512 C11.1720779,16.7714885 12.834375,15.3598882 14.1588068,14.0880503 C15.4832386,12.8162124 16.1454545,11.8798043 16.1454545,11.278826 C16.1454545,10.9154437 15.7805601,10.6114605 15.0507711,10.3668763 C14.3209821,10.1222921 13.2127841,10 11.7261769,10 C10.9288149,10 10.1551035,10.0698812 9.40504261,10.2096436 C8.65498174,10.349406 8.2799513,10.6149546 8.2799513,11.0062893 C8.2799513,11.2858141 8.36103896,11.5408805 8.52321429,11.7714885 C8.68538961,12.0020964 8.90162338,12.1453529 9.17191558,12.2012579 C10.3476867,11.7540182 11.5437297,11.5303983 12.7600446,11.5303983 C13.4087459,11.5303983 14.030418,11.5932914 14.6250609,11.7190776 C14.0844765,12.3060797 13.5709213,12.8266946 13.0843953,13.2809224 C12.5978693,13.7351502 11.9221388,14.3326345 11.0572037,15.0733753 L11.0572037,15.0733753 L9.8408888,16.1006289 C8.75971997,16.9951083 8.02655235,17.6345213 7.64138596,18.0188679 C7.25621956,18.4032145 7.06363636,18.7421384 7.06363636,19.0356394 C7.06363636,19.6785465 7.90154221,20 9.5773539,20 Z" id="z" fill-rule="nonzero"></path>
                        <path d="M1.11720779,24 C1.69983766,24 2.3125,23.9475891 2.95519481,23.8427673 C3.59788961,23.7379455 3.94326299,23.5737247 3.99131494,23.3501048 C4.01534091,23.2382949 4.0273539,23.1404612 4.0273539,23.0566038 C4.0273539,22.8819008 3.96428571,22.7945493 3.83814935,22.7945493 C3.76607143,22.7945493 3.65194805,22.8190077 3.49577922,22.8679245 C2.72094156,23.0775681 2.11728896,23.1823899 1.68482143,23.1823899 L1.68482143,23.1823899 L1.39650974,23.1823899 C1.20430195,23.1823899 1.05113636,23.1754018 0.937012987,23.1614256 C1.82597403,22.3857442 2.56477273,21.6799441 3.15340909,21.0440252 C3.74204545,20.4081062 4.03636364,19.9399022 4.03636364,19.639413 C4.03636364,19.4577219 3.87418831,19.3057303 3.54983766,19.1834382 C3.22548701,19.0611461 2.73295455,19 2.07224026,19 C1.71785714,19 1.37398539,19.0349406 1.040625,19.1048218 C0.70726461,19.174703 0.540584416,19.3074773 0.540584416,19.5031447 C0.540584416,19.6429071 0.576623377,19.7704403 0.648701299,19.8857442 C0.720779221,20.0010482 0.816883117,20.0726765 0.937012987,20.1006289 C1.45957792,19.8770091 1.9911526,19.7651992 2.53173701,19.7651992 C2.8200487,19.7651992 3.0963474,19.7966457 3.36063312,19.8595388 C3.12037338,20.1530398 2.89212662,20.4133473 2.67589286,20.6404612 C2.45965909,20.8675751 2.15933442,21.1663173 1.77491883,21.5366876 L1.77491883,21.5366876 L1.23433442,22.0503145 C0.753814935,22.4975542 0.427962662,22.8172607 0.256777597,23.009434 C0.0855925325,23.2016073 0,23.3710692 0,23.5178197 C0,23.8392732 0.372402597,24 1.11720779,24 Z" id="z" fill-rule="nonzero"></path>
                        <path d="M22.8036526,14 C24.6971997,14 26.6883523,13.8532495 28.7771104,13.5597484 C30.8658685,13.2662474 31.988332,12.8064291 32.1445008,12.1802935 C32.2225852,11.8672257 32.2616274,11.5932914 32.2616274,11.3584906 C32.2616274,10.8693222 32.0566558,10.6247379 31.6467127,10.6247379 C31.4124594,10.6247379 31.0415584,10.6932215 30.5340097,10.8301887 C28.0157873,11.4171908 26.0539164,11.7106918 24.6483969,11.7106918 L24.6483969,11.7106918 L23.7113839,11.7106918 C23.0867086,11.7106918 22.5889205,11.6911251 22.2180195,11.6519916 C25.1071429,9.48008386 27.5082386,7.50384347 29.4213068,5.72327044 C31.334375,3.94269741 32.2909091,2.63172607 32.2909091,1.79035639 C32.2909091,1.28162124 31.7638393,0.856044724 30.7096997,0.513626834 C29.6555601,0.171208945 28.0548295,0 25.9075081,0 C24.755763,0 23.6381798,0.0978336827 22.5547585,0.293501048 C21.4713373,0.489168414 20.9296266,0.860936408 20.9296266,1.40880503 C20.9296266,1.80013976 21.0467532,2.1572327 21.2810065,2.48008386 C21.5152597,2.80293501 21.8275974,3.00349406 22.2180195,3.08176101 C23.9163555,2.45562544 25.6439732,2.14255765 27.4008726,2.14255765 C28.3378856,2.14255765 29.2358563,2.23060797 30.0947849,2.4067086 C29.3139407,3.22851153 28.5721388,3.95737247 27.8693791,4.5932914 C27.1666193,5.22921034 26.1905641,6.06568833 24.9412135,7.10272537 L24.9412135,7.10272537 L23.1843141,8.5408805 C21.6226258,9.79315164 20.5636059,10.6883298 20.0072545,11.2264151 C19.450903,11.7645003 19.1727273,12.2389937 19.1727273,12.6498952 C19.1727273,13.5499651 20.3830357,14 22.8036526,14 Z" id="z" fill-rule="nonzero"></path>
                    </g>
                    <g id="icons-new/principales/movil" transform="translate(38.345455, 20.000000)">
                        <path d="M19.7888674,45.0395828 C19.2678569,45.5665627 18.5082006,45.8449794 17.5910905,45.8449794 C16.6746379,45.8449794 15.9149816,45.5665627 15.3939711,45.0395828 C14.8798635,44.5200663 14.6191939,43.8003364 14.6191939,42.9005117 C14.6191939,41.0567311 15.7302447,39.9557195 17.5910905,39.9557195 C19.4525938,39.9557195 20.5633159,41.0567311 20.5633159,42.9005117 C20.5633159,43.8003364 20.3026463,44.5200663 19.7888674,45.0395828 M33.028123,2.19618222 C31.572252,0.718431951 29.423782,0 26.4597745,0 L8.69413722,0 C2.92521937,0 0,2.92499802 0,8.6932213 L0,43.3067795 C0,49.156451 2.84402719,52 8.69413722,52 L26.4597745,52 C32.3102132,52 35.1539117,49.156451 35.1539117,43.3067795 L35.1539117,8.6932213 C35.1539117,5.77244172 34.4586832,3.64732391 33.028123,2.19618222" id="Fill-2287"></path>
                    </g>
                </g>
            </g>
        </g>
    </g>
</svg>