<svg xmlns="http://www.w3.org/2000/svg" width="19" height="24" viewBox="0 0 19 24">
    <path fill="#00A9E0" fill-rule="evenodd" d="M17.538 5.25v16.888c0 1.028-.833 1.862-1.862 1.862H3.324c-1.029 0-1.862-.834-1.862-1.862V5.25h16.076zM6.577 7.5c-.37 0-.676.275-.724.632l-.007.099v11.288c0 .404.327.731.73.731.37 0 .677-.275.725-.632l.007-.099V8.231c0-.404-.327-.731-.731-.731zm5.846 0c-.37 0-.676.275-.724.632l-.007.099v11.288c0 .404.327.731.731.731.37 0 .676-.275.724-.632l.007-.099V8.231c0-.404-.327-.731-.73-.731zM9.83 0c.904 0 1.658.645 1.827 1.5H17.5c.828 0 1.5.672 1.5 1.5s-.672 1.5-1.5 1.5h-16C.672 4.5 0 3.828 0 3s.672-1.5 1.5-1.5h5.843C7.512.645 8.266 0 9.17 0h.66z"/>
</svg>
