<svg xmlns="http://www.w3.org/2000/svg" width="93" height="26" viewBox="0 0 93 26">
    <path fill="#86888C" fill-rule="evenodd" d="M29.085 0c-.533.278-1.715.347-2.704.347h-9.759c-5.485 0-8.851 1.831-9.403 4.576-.093.474-.06.96.09 1.389h1.824c.135-2.965 3.261-4.657 8.128-4.657l2.716-.012c-1.583.95-2.902 2.19-3.918 4.53a1.47 1.47 0 01-.061.139h2.738c1.028-2.594 1.739-3.916 2.8-4.669h3.952c2.155-.057 3.086-.612 3.745-1.458L29.085 0zM15.998 6.312c-.398.96-1.568 3.995-2.481 6.473-.32.869-.609 1.666-.821 2.28-1.053 2.884-1.725 4.205-2.564 4.691l.136.266c2.356.14 3.755-1.09 4.663-3.36.442-1.1.957-2.534 1.43-3.877.447-1.262.856-2.445 1.131-3.187.475-1.273.88-2.36 1.244-3.275l-2.738-.011zm-8.688 0c.27.799.93 1.435 1.952 1.539l.14-.104c-.205-.37-.282-.972-.273-1.343l.004-.08-1.823-.012zM50.588.22c-2.747.023-6.141.66-8.514 5.663-.443.07-.862.208-1.237.429a3.18 3.18 0 00-.658.532l.102.231c.386-.139.84-.173 1.35-.173-.318.822-.975 2.618-1.645 4.436-.394.54-.79 1.021-1.184 1.447h-.011c-1.578 1.714-3.097 2.523-4.267 2.535-.806.011-1.134-.428-1.134-1.227-.012-.394.068-.926.147-1.308.023-.081.034-.162.057-.231 1.578-.8 3.153-1.693 4.573-3.199.783-.868 1.327-1.724 1.35-2.627 0-.15-.011-.29-.045-.416-.148-.58-.647-.869-1.498-.88-.055 0-.108-.002-.163 0-.83.03-1.731.37-2.572.88a8.276 8.276 0 00-1.725 1.412c-1.249 1.39-2.273 3.255-2.625 5.061-.08.405-.125.81-.125 1.204-.01 1.482.752 2.72 2.728 2.673 2.1-.07 4.016-1.318 5.673-3.09-.42 1.135-.783 2.118-.987 2.639-.624 1.575-1.077 2.839-2.02 3.58l.114.185c2.77.162 3.804-1.819 4.95-5.073.262-.73.5-1.435.75-2.118.817-2.35 1.531-4.39 2.122-5.906 1.203 0 2.93.046 3.896-.186-1.999.904-3.748 3.649-4.26 6.092-.136.649-.192 1.273-.136 1.852.114 1.181.794 2.002 2.293 2.002 2.145.012 4.042-1.908 5.257-3.854.409-.66.749-1.33.987-1.91.534-1.331.874-2.456.942-3.58.681-.127 1.343-.254 1.66-.3.648-.093.523.624.33 1.18a177.724 177.724 0 01-1.748 4.61c-.806 2.027-1.49 3.657-1.49 3.692h2.262c.704-1.529 1.225-2.65 1.759-3.692.193-.382.385-.74.59-1.111.93-1.656 3.033-4.402 3.873-4.402.295-.011.374.197.318.486-.114.753-1.4 3-2.194 5.027h2.523c.181-.428.351-.798.476-1.065.693-1.517 1.93-3.73 1.861-4.934a1.27 1.27 0 00-.125-.463l-3.347-.011c-1.135.74-2.239 2.036-3.204 3.587l-.045-.023c.613-1.401 1.09-2.73 1.078-3.356 0-.07-.011-.139-.023-.208-.08-.44-.397-.625-.998-.614-.489 0-1.146.197-1.793.37-.307.082-.613.162-.93.244-.637.162-1.298.323-2.002.474-.647.104-.85.208-.85.44.067 1.899-.545 3.984-1.374 5.56-.806 1.516-1.815 2.58-2.632 2.58-.715 0-.89-.52-.89-1.262 0-.405.046-.844.148-1.319.5-2.524 2.25-5.698 3.964-6.277.182-.058.352-.092.477-.127l.023-.07.227-.624c-.432.08-1.453.104-1.986.104-.545.011-4.475.011-4.475.011 1.181-2.872 2.84-4.726 5.258-4.818 1.51-.07 2.519.508 2.61 1.4.068.741-.148 1.346-.727 1.972l.17.162c1.318-.637 2.24-1.728 2.24-2.47C54.098.903 52.757.198 50.588.22zm9.233 6.092h3.347c-.204-.371-.635-.66-1.35-.66-.67 0-1.339.243-1.997.66zm-1.388 6.473c-.375.95-.647 1.851-.636 2.546.023 1.378.764 2.215 2.013 2.527l.25-.15c-.148-.29-.17-.687-.182-1.115-.012-1.042.578-2.627 1.078-3.796l-2.523-.012zM69.266 1.39c-.625.011-1.26.601-1.396 1.308-.148.718.25 1.288.885 1.277.636-.012 1.26-.606 1.407-1.312.136-.718-.26-1.285-.896-1.273zm-35.32.07l-2.206.428c-.329.08-.533.335-.646.59a192.598 192.598 0 00-1.748 3.835h2.508c.84-1.865 1.626-3.58 2.092-4.854zm-4.6 4.853a367.153 367.153 0 00-1.759 4.066c-.147.336-.309.694-.457 1.065-.323.463-.669.914-1.037 1.342-1.227 1.424-2.655 2.523-3.933 2.535-.693.011-1.001-.393-.999-1.216.001-.405.078-.937.155-1.319.018-.081.036-.162.053-.231 1.574-.8 3.153-1.693 4.577-3.199.788-.868 1.335-1.724 1.346-2.627 0-.15-.011-.29-.045-.416-.14-.58-.643-.869-1.494-.88-.054 0-.112-.002-.167 0-.826.03-1.735.37-2.572.88-.64.393-1.238.879-1.724 1.412-1.252 1.39-2.275 3.255-2.622 5.061-.078.405-.12.81-.124 1.204-.016 1.517.689 2.72 2.613 2.673 2.056-.07 4.067-1.689 5.11-2.847-.135.486-.22.949-.22 1.354 0 1.344.661 2.295 1.96 2.712l.261-.127a3.098 3.098 0 01-.113-1.184c.08-1.089.442-2.291.987-3.785.113-.301.238-.613.363-.949.693-1.795 1.554-3.73 2.349-5.513l-2.508-.011zm45.745-.764c-.807.011-1.74.254-2.648.764a7.527 7.527 0 00-1.816 1.47C69.19 9.374 68.352 11.258 68 12.784h-.004v.012c-.056.296-.114.57-.136.833-.795.95-1.672 1.574-2.262 1.586-.33.023-.556-.15-.556-.521-.012-.313.158-.949.465-1.771.023-.046.034-.093.057-.139.692-1.772 1.682-3.926 2.886-6.473.09-.186.181-.394.272-.59 0 0-2.054.358-2.349.427a1.037 1.037 0 00-.696.602c-.874 1.888-1.917 4.1-2.576 5.733-.034.104-.08.197-.113.301-.34.915-.533 1.77-.533 2.303 0 1.008.623 1.632 1.826 1.609 1.25-.035 2.534-.786 3.59-1.829.204 1.1.975 1.887 2.553 1.84 1.635-.046 3.214-1.11 4.316-2.326 0 .116-.012.243-.012.359 0 1.123.578 1.956 1.839 1.956 1.362 0 2.93-1.04 4.157-2.836l.045.024a8.163 8.163 0 00-.25 1.631c-.034 1.355.749 2.122 1.861 2.354l.25-.104c-.386-.985.159-3.43.397-4.24.08-.243.159-.486.238-.74.784-2.421 1.872-5.004 2.565-6.474.023-.035.034-.081.057-.116-.341-.29-1.146-.51-1.998-.533-.15-.005-.3-.009-.45-.007a7.633 7.633 0 00-3.075.656h-.026c-1.556.717-2.999 2.028-4.191 4.181-.363.637-.76 1.389-1.033 2.2-.034.034-.056.069-.08.092-.272.347-.532.66-.657.787-.75.741-1.819 1.678-2.898 1.701-.624 0-.964-.439-.953-1.215 0-.405.046-.833.136-1.261l-1.331-.008 1.331-.004c.557-2.86 2.715-6.288 4.237-6.3.488 0 .692.22.692.637 0 .498-.34 1.192-.806 1.632l.204.185c1.17-.463 2.27-1.308 2.281-2.188 0-.162-.034-.312-.09-.44-.284-.636-1.226-.763-2.088-.763zm-50.023.972c.336.011.47.243.47.555-.008 1.425-1.74 3.267-3.957 4.61.556-2.234 2.111-5.165 3.487-5.165zm12.225 0c.34.011.465.243.465.555-.011 1.425-1.735 3.267-3.949 4.61.545-2.234 2.11-5.165 3.484-5.165zm45.544.073a2.17 2.17 0 01.552.054c-.17.36-.964 1.99-1.588 3.46-.398.939-.863 1.867-1.385 2.678-.76 1.17-1.603 2.072-2.41 2.28-.476.116-.748-.092-.737-.544.012-.475.136-1.076.352-1.736.704-2.212 2.397-5.084 4.089-5.895.426-.202.797-.287 1.127-.297zm-40.96 17.878c-21.379.031-41.776.299-41.776.625 0 .347 23.206.636 46.058.636 22.844 0 46.05-.289 46.05-.636 0-.348-23.206-.625-46.05-.625-1.428 0-2.856-.003-4.282 0z"/>
</svg>
