<svg xmlns="http://www.w3.org/2000/svg" width="24" height="24" viewBox="0 0 24 24">
    <path fill="#FFF" fill-rule="evenodd" d="M9.856 3.75c2.175-.037 4.24 1.162 5.514 3.129.18.275.491.458.847.458.037 0 .062-.002.098-.006.103-.008.193-.013.296-.014 1.26-.022 2.416.41 3.257 1.218.9.863 1.365 2.053 1.342 3.36 0 .45.281.815.69.945 1.148.428 1.946 1.306 2.08 2.393.148 1.194-.543 2.357-1.807 3.05-.021.014-.044.027-.067.04-2.12 1.075-5.833 1.76-9.933 1.83-2.659.047-5.261-.18-7.329-.636l-.03-.006-.09-.02c-3.116-.702-5.193-3.395-4.633-6.015.349-1.63 1.62-2.902 3.366-3.456.359-.114.63-.422.69-.799.343-2.527 1.985-4.605 4.273-5.257.467-.133.95-.205 1.436-.213zm2.57 8.324c-.266-.115-.63-.096-.863.057L7.89 14.536l-.085.066c-.214.195-.332.533-.266.802v.015l.033.098c.107.256.37.452.657.452H9.76c-.008 1.613-.084 2.06 2.24 2.06 2.324 0 2.248-.447 2.24-2.06h1.629l.106-.01c.28-.046.518-.271.584-.54v-.015l.016-.104c.021-.283-.13-.608-.367-.764l-3.674-2.405z"/>
</svg>
