<svg xmlns="http://www.w3.org/2000/svg" width="24" height="24" viewBox="0 0 24 24">
    <g fill="#FFF" fill-rule="evenodd">
        <path d="M10.229 13.861c.024-.02.032-.055.019-.084-1.717-3.704-3.858-7.194-6.379-10.4 0 0-2.005 1.912-1.862 3.828.068.893.486 1.723 1.162 2.308 1.748 1.712 5.981 3.874 6.965 4.363.031.017.07.011.095-.015M9.574 15.327c-.013-.039-.05-.065-.09-.065v-.001l-7.047.246c.763 1.37 2.05 2.433 3.392 2.108.925-.233 3.022-1.702 3.712-2.199v-.002c.052-.048.033-.087.033-.087M9.681 14.69c.034-.056-.027-.104-.027-.104l.001-.003C6.56 12.486.561 9.263.561 9.263c-.675 2.097.38 4.36 2.414 5.18.43.172.885.273 1.347.299.106.02 4.192.002 5.286-.003.03-.004.058-.022.073-.05M10.149.318c-.307.027-1.135.217-1.135.217-1.093.28-1.965 1.107-2.307 2.187-.194.736-.19 1.511.01 2.246.622 2.777 3.687 7.341 4.345 8.299.047.047.085.03.085.03.04-.01.067-.047.065-.089h.001C12.226 3.02 10.15.318 10.15.318M12.481 13.294c.039.015.083-.001.102-.038.678-.984 3.724-5.523 4.343-8.288.185-.737.19-1.507.012-2.246C16.591 1.637 15.71.809 14.61.536c0 0-.539-.137-1.11-.218 0 0-2.089 2.703-1.073 12.898h.001c0 .035.022.065.054.078M14.15 15.268s-.062.008-.08.053c-.008.035.002.072.028.097h-.001c.674.486 2.72 1.924 3.705 2.202 0 0 1.822.624 3.405-2.108l-7.057-.247v.003zM23.083 9.249s-5.991 3.23-9.09 5.331h.002c-.033.024-.047.065-.036.104 0 0 .03.053.073.053v.001c1.108.002 5.306.005 5.412-.014.416-.033.825-.128 1.214-.281 1.012-.399 1.827-1.182 2.268-2.18.415-.953.47-2.024.157-3.014M13.428 13.861c.028.02.065.024.096.007v.002c1.01-.507 5.21-2.653 6.95-4.357.676-.59 1.093-1.422 1.161-2.319.127-1.983-1.86-3.817-1.86-3.817-2.515 3.197-4.652 6.678-6.368 10.371h.003c-.019.038-.011.084.018.113" transform="translate(0 3)"/>
    </g>
</svg>
