<svg xmlns="http://www.w3.org/2000/svg" width="32" height="32" viewBox="0 0 32 32">
    <g fill="none" fill-rule="evenodd" transform="translate(1 1)">
        <circle cx="15" cy="15" r="15" stroke="#B6B7B7" stroke-width="1.324"/>
        <path fill="#B6B7B7" fill-rule="nonzero" d="M22.632 16.822v5.882h-3.404v-5.488c0-1.379-.492-2.32-1.724-2.32-.94 0-1.5.634-1.747 1.248-.09.219-.113.524-.113.831v5.73H12.24s.046-9.296 0-10.26h3.405V13.9l-.023.033h.023V13.9c.452-.698 1.26-1.696 3.068-1.696 2.24 0 3.92 1.467 3.92 4.618zM8.677 7.5c-1.165 0-1.927.766-1.927 1.772 0 .985.74 1.774 1.882 1.774h.022c1.188 0 1.926-.789 1.926-1.774C10.558 8.266 9.842 7.5 8.677 7.5zM6.952 22.704h3.404V12.445H6.952v10.26z"/>
    </g>
</svg>
