<svg xmlns="http://www.w3.org/2000/svg" width="24" height="30" viewBox="0 0 24 30">
    <g fill="none" fill-rule="evenodd">
        <path d="M0 0H30V30H0z" transform="translate(-3)"/>
        <g fill="#954B97" fill-rule="nonzero">
            <path d="M23.788 7.986L16.324.232C16.185.087 15.995 0 15.798 0H3.98C1.8 0 0 1.775 0 3.935v22.13C0 28.225 1.8 30 3.98 30h16.04C22.2 30 24 28.225 24 26.065V8.493c0-.189-.088-.37-.212-.507zm-7.251-5.428l4.997 5.196h-3.249c-.965 0-1.748-.768-1.748-1.725V2.558zm6 23.507c0 1.363-1.142 2.486-2.517 2.486H3.98c-1.368 0-2.517-1.123-2.517-2.486V3.935c0-1.355 1.142-2.486 2.517-2.486h11.093v4.58c0 1.76 1.434 3.174 3.212 3.174h4.252v16.862z" transform="translate(-3) translate(3)"/>
            <path d="M18.022 23.55H5.978c-.402 0-.732.327-.732.725 0 .399.33.725.732.725h12.051c.403 0 .732-.326.732-.725 0-.398-.33-.724-.739-.724zM18.026 19.5H5.982c-.403 0-.732.326-.732.725 0 .398.33.724.732.724h12.05c.403 0 .733-.326.733-.724 0-.399-.33-.725-.74-.725zM18.026 15.75H5.982c-.403 0-.732.326-.732.725 0 .398.33.724.732.724h12.05c.403 0 .733-.326.733-.724 0-.399-.33-.725-.74-.725zM18.026 12H5.982c-.403 0-.732.326-.732.725 0 .398.33.724.732.724h12.05c.403 0 .733-.326.733-.724 0-.399-.33-.725-.74-.725zM13.049 8.25H5.697c-.246 0-.447.326-.447.725 0 .398.201.724.447.724h7.356c.246 0 .447-.326.447-.724 0-.399-.201-.725-.451-.725z" transform="translate(-3) translate(3)"/>
        </g>
    </g>
</svg>
