<svg xmlns="http://www.w3.org/2000/svg" width="30" height="27" viewBox="0 0 30 27">
    <g fill="none" fill-rule="evenodd">
        <path d="M0 0H30V30H0z" transform="translate(0 -2)"/>
        <g fill-rule="nonzero" transform="translate(0 -2) translate(0 2)">
            <path stroke="#FFF" stroke-width="2" d="M5.073 4.659C7.627 2.395 11.152 1 15.022 1c3.868 0 7.381 1.394 9.924 3.662C27.441 6.886 29 9.956 29 13.355c0 2.588-.931 5.093-2.618 7.194-.133.165-.269.326-.408.483.093.215.2.428.318.637.43.757.976 1.396 1.669 1.832-.745 1.292-1.165 1.287-1.585 1.287-1.288 0-2.459-.274-3.551-.785-3.006 1.086-5.385 1.664-7.847 1.664-3.862 0-7.37-1.401-9.912-3.668C2.564 19.77 1 16.696 1 13.311 1 9.934 2.57 6.877 5.073 4.66z"/>
            <circle cx="15.333" cy="19.533" r="1.333" fill="#FFF"/>
            <path fill="#FFF" d="M15.333 16.867c-.655 0-1.146-.514-1.146-1.106 0-1.304.818-2.45 2.087-2.963.9-.355 1.433-1.224 1.433-2.132-.041-1.185-1.064-2.173-2.292-2.212-.655 0-1.228.197-1.72.632-.45.434-.695.987-.695 1.62 0 .631-.532 1.105-1.146 1.105-.614 0-1.187-.513-1.187-1.106 0-1.224.49-2.37 1.391-3.239.9-.869 2.088-1.303 3.398-1.264 2.414.08 4.461 2.015 4.543 4.385.04 1.856-1.064 3.515-2.824 4.265-.41.158-.696.514-.696.909 0 .592-.491 1.106-1.146 1.106z"/>
        </g>
    </g>
</svg>
