<svg xmlns="http://www.w3.org/2000/svg" width="16" height="16" viewBox="0 0 16 16">
    <g fill="#50535A">
        <path d="M15.886 3.94c-.086-.111-.219-.176-.359-.176H4.11c-.187-1.047-.325-2.032-.33-2.055C3.604.721 2.67.003 1.558.003H.455C.204.003 0 .206 0 .458c0 .251.204.455.455.455h1.102c.66 0 1.229.41 1.327.956.186 1.044 1.224 7.076 1.33 7.747.13.834.441 1.486.923 1.94.46.434 1.064.663 1.745.663h4.882c.674 0 1.246-.23 1.7-.683.43-.43.718-1.05.96-1.876.107-.367 1.403-4.828 1.545-5.328.037-.137.006-.282-.083-.393zM6.882 15.993c-.407 0-.733-.116-.97-.344-.247-.238-.373-.574-.373-1 0-.424.126-.76.373-.998.237-.227.563-.344.97-.344.407 0 .734.116.97.344.248.238.373.574.373.999 0 .424-.125.76-.372.999-.237.228-.564.344-.97.344zM11.32 15.993c-.407 0-.733-.116-.97-.344-.247-.238-.372-.574-.372-1 0-.424.125-.76.372-.998.237-.227.563-.344.97-.344.408 0 .734.116.97.344.248.238.373.574.373.999 0 .424-.125.76-.372.999-.237.228-.563.344-.97.344z"/>
    </g>
</svg>
