<svg xmlns="http://www.w3.org/2000/svg" width="32" height="32" viewBox="0 0 32 32">
    <g fill="none" fill-rule="evenodd" transform="translate(1 1)">
        <circle cx="15" cy="15" r="15" stroke="#B6B7B7" stroke-width="1.324"/>
        <path fill="#B6B7B7" fill-rule="nonzero" d="M12.138 21.191c5.566 0 8.61-4.978 8.61-9.295 0-.142-.004-.282-.01-.422.591-.462 1.105-1.037 1.51-1.692-.542.26-1.126.435-1.738.514.625-.404 1.105-1.044 1.33-1.807-.584.374-1.231.646-1.92.793-.553-.635-1.339-1.032-2.21-1.032-1.67 0-3.025 1.463-3.025 3.267 0 .256.026.505.078.744-2.514-.136-4.744-1.436-6.237-3.413-.26.483-.41 1.044-.41 1.642 0 1.134.535 2.134 1.347 2.72-.496-.017-.963-.164-1.37-.41v.043c0 1.582 1.042 2.903 2.427 3.202-.254.075-.522.115-.798.115-.195 0-.384-.02-.569-.059.385 1.298 1.502 2.243 2.827 2.27-1.036.876-2.34 1.398-3.758 1.398-.244 0-.485-.015-.722-.046 1.34.927 2.93 1.468 4.638 1.468"/>
    </g>
</svg>
