<svg xmlns="http://www.w3.org/2000/svg" width="32" height="32" viewBox="0 0 32 32">
    <g fill="none" fill-rule="evenodd" transform="translate(1 1)">
        <circle cx="15" cy="15" r="15" stroke="#B6B7B7" stroke-width="1.324"/>
        <path fill="#B6B7B7" fill-rule="nonzero" d="M13.963 18.276l.74-.74c.293-.294.425-.677.411-1.048-.006-.156-.115-.355-.244-.443-.103-.07-.234-.172-.364-.301-.987-.987-.99-2.59 0-3.58L16.87 9.8c.992-.992 2.612-.986 3.597.018.976.995.945 2.6-.04 3.585l-.46.46c-.154.153-.203.38-.134.584.207.604.318 1.23.341 1.853.018.49.614.72.96.373l1.304-1.304c2.084-2.083 2.084-5.474 0-7.557-2.083-2.084-5.473-2.084-7.557 0l-2.363 2.362-.012.013c-2.06 2.07-2.088 5.442.012 7.544.185.185.508.456.722.605.225.157.53.133.724-.06zm1.157 4.411l2.375-2.375c2.06-2.07 2.088-5.442-.013-7.544-.184-.185-.507-.456-.721-.605-.225-.157-.53-.133-.724.06l-.74.741c-.293.294-.425.677-.411 1.048.006.156.115.355.244.443.102.07.234.172.364.301.987.987.99 2.59 0 3.58L13.13 20.7c-.993.992-2.612.986-3.597-.018-.976-.995-.945-2.6.04-3.585l.46-.46c.153-.153.203-.38.133-.584-.206-.604-.317-1.23-.34-1.853-.018-.49-.614-.72-.96-.373L7.563 15.13c-2.084 2.084-2.084 5.474 0 7.557 2.083 2.084 5.473 2.084 7.557 0z"/>
    </g>
</svg>
