<svg xmlns="http://www.w3.org/2000/svg" width="109" height="80" viewBox="0 0 109 80">
    <path fill="#5CC500" fill-rule="evenodd" d="M20.439 9.267c-5.038.08-14.336 2.556-18.584 19.85C.005 36.651-.71 44.506.873 53.854c1.462 8.623 4.05 16.066 5.794 20.167.601 1.414 1.532 2.888 2.25 3.794 2.071 2.608 5.515 2.442 6.964 1.732 1.578-.776 3.391-2.646 2.735-6.915-.317-2.063-1.233-5.081-1.747-6.759-1.582-5.148-3.686-11.36-3.869-15.783-.246-5.92 2.095-6.694 3.65-7.035 2.613-.572 4.805 2.289 6.887 5.875 2.484 4.28 6.742 11.865 10.216 17.656 3.136 5.231 8.922 10.83 18.215 10.445 9.475-.391 16.457-3.996 20.055-15.34 2.692-8.49 4.528-14.831 7.48-21.328 3.395-7.469 7.924-11.468 11.739-10.246 3.54 1.133 4.424 4.583 4.466 9.657.038 4.486-.482 9.433-.887 13.067-.147 1.318-.414 3.97-.305 5.444.215 2.896 1.471 5.787 4.742 6.25 3.484.494 6.279-2.282 7.395-5.637.44-1.323.815-3.347 1.018-4.782 1.024-7.252 1.29-12.125.827-19.543-.54-8.676-2.241-16.587-5.213-23.433C100.444 4.594 95.879.398 90.025.027c-6.481-.41-13.917 3.878-17.818 12.194-3.597 7.667-6.473 15.536-8.218 19.553-1.771 4.074-4.371 6.584-8.371 7.004-4.89.513-9.103-3.026-12.189-8.071-2.691-4.4-8.023-12.774-10.875-15.59-2.681-2.642-5.741-5.95-12.115-5.85"/>
</svg>
