<svg xmlns="http://www.w3.org/2000/svg" width="329" height="39" viewBox="0 0 329 39">
    <g fill="none" fill-rule="evenodd">
        <text fill="#50535A" font-family="TelefonicaCap-Regular, Telefonica Cap" font-size="22" font-style="italic" transform="translate(-1)">
            <tspan x="0" y="25">UNA MARCA DE</tspan>
        </text>
        <g>
            <path fill="#50535A" d="M39.177 9.713c.532 0 .719.365.719.826 0 2.19-2.71 4.983-6.158 7.022.865-3.385 3.306-7.875 5.44-7.848zm3.193 7.47c-2.15 3.109-5.146 5.916-7.723 5.916-1.098.04-1.578-.587-1.558-1.842 0-.76.175-1.815.326-2.354 2.437-1.228 4.916-2.601 7.122-4.876 1.236-1.323 2.057-2.649 2.098-4.012.022-1.286-.788-1.95-2.399-1.97-2.334-.03-5.136 1.562-6.952 3.497-2.39 2.6-4.233 6.276-4.283 9.545-.028 2.31 1.075 4.146 4.068 4.042 3.192-.092 6.34-2.551 7.956-4.33-.19.767-.321 1.48-.321 2.068 0 2.06 1.022 3.516 3.05 4.133l.407-.185c-.188-.558-.233-1.14-.188-1.787.14-2.004.944-4.256 2.116-7.22C48.319 12.2 51.567 5.78 53 2l-3.411.644c-.53.11-.865.517-1.043.898-1.642 3.484-3.332 7.2-5.444 12.04-.243.516-.467 1.058-.732 1.6zM126.598 10.053c1.01-.484 1.852-.51 2.56-.367-.265.574-1.483 3.086-2.426 5.344-1.5 3.54-3.748 7.116-5.836 7.623-.715.213-1.138-.103-1.13-.835.059-3.134 3.427-10.131 6.832-11.765zM97 22.701c0 1.57.973 2.538 2.83 2.48 1.92-.036 3.876-1.202 5.49-2.802.311 1.685 1.503 2.918 3.927 2.831 2.527-.096 4.945-1.717 6.62-3.6v.545c0 1.739.876 3.039 2.815 3.039 2.092 0 4.495-1.607 6.396-4.378l.066.036c-.182.655-.38 1.768-.41 2.51-.031 2.086 1.176 3.292 2.856 3.638l.416-.167c-.62-1.518.239-5.287.597-6.538 1.252-4.132 3.244-8.854 4.397-11.298-.525-.463-1.76-.774-3.07-.838-4.336-.158-8.71 1.672-11.9 7.448-.543 1.014-1.144 2.17-1.587 3.395-.451.615-.926 1.166-1.127 1.366-1.152 1.139-2.788 2.594-4.454 2.615-.952.021-1.468-.663-1.45-1.87.022-4.62 4.002-11.645 6.704-11.663.746 0 1.063.333 1.063.981 0 .765-.506 1.828-1.241 2.506l.319.292c1.813-.71 3.501-2.003 3.51-3.385 0-1.567-1.766-1.862-3.34-1.843-2.11.027-4.736 1.082-6.846 3.444-2.642 2.954-4.008 6.503-4.277 9.036-1.208 1.442-2.561 2.423-3.459 2.43-.508.025-.874-.258-.874-.803 0-.483.266-1.465.736-2.734 1.17-2.988 2.858-6.697 4.936-11.11 0 0-3.163.543-3.62.679-.475.123-.847.443-1.055.888-1.357 2.941-2.96 6.332-3.964 8.866C97.386 20.289 97 21.797 97 22.7zM58.02 9.574c.523 0 .738.364.738.822-.02 2.181-2.67 4.964-6.1 6.995.865-3.372 3.261-7.844 5.363-7.817zM48 20.904c-.026 2.252 1.156 4.129 4.174 4.025 3.24-.092 6.184-1.975 8.736-4.67-.638 1.731-1.19 3.22-1.523 4.025-.943 2.372-1.64 4.3-3.095 5.418l.16.284c4.27.247 5.866-2.768 7.619-7.69 1.757-4.93 3.242-9.218 4.4-12.194 1.869 0 4.518.068 5.998-.27-3.868 1.729-7.156 7.943-6.767 12.034.173 1.818 1.246 3.063 3.536 3.063 4.439 0 8.175-5.289 9.602-8.778.815-2 1.355-3.702 1.444-5.417 1.055-.19 2.065-.372 2.573-.452.967-.128.782.95.473 1.768-1.809 5.104-4.96 12.516-4.969 12.63h3.467c1.502-3.153 2.435-5.167 3.626-7.307 1.45-2.521 4.675-6.669 5.954-6.679.454 0 .575.291.46.733-.222 1.711-4.378 8.25-4.306 11.48.037 2.117 1.147 3.39 3.072 3.875l.405-.228c-.247-.464-.28-1.04-.28-1.717-.036-2.153 1.703-5.923 2.375-7.387 1.074-2.302 2.984-5.658 2.86-7.504-.064-.9-.733-1.698-2.268-1.71-2.824-.019-5.635 2.749-7.998 6.456l-.066-.018c.947-2.149 1.688-4.15 1.663-5.127-.022-.894-.526-1.244-1.581-1.244-.742.024-1.76.31-2.76.578-1.4.365-2.87.743-4.481 1.086-.99.135-1.34.315-1.305.68.203 5.66-3.623 12.318-6.175 12.34-1.1 0-1.346-.808-1.346-1.915-.013-3.918 3.185-10.496 6.31-11.54.27-.08.535-.133.716-.195l.398-1.057c-.663.14-2.236.165-3.07.19h-6.858c1.813-4.348 4.357-7.169 8.078-7.334 2.31-.08 3.866.804 4.007 2.136.094 1.134-.217 2.057-1.117 2.992l.25.26c2.04-.97 3.446-2.618 3.46-3.745.03-1.737-2.062-2.814-5.394-2.778-4.226.026-9.448.985-13.083 8.593-1.092.161-2.084.581-2.907 1.469l.15.333c.595-.214 1.303-.242 2.09-.242-.509 1.242-1.517 3.95-2.529 6.734-3.066 4.08-6.153 6.02-8.407 6.02-1.237.039-1.735-.65-1.744-1.836-.013-.756.167-1.792.32-2.344 2.414-1.223 4.838-2.591 7.035-4.857 1.198-1.318 2.03-2.638 2.072-3.996.015-1.28-.77-1.943-2.373-1.962-2.301-.03-5.059 1.555-6.866 3.483-2.357 2.589-4.18 6.251-4.215 9.507zM106.568 6c1.07-.013 2.146-.941 2.378-2.027.258-1.127-.44-1.996-1.521-1.973-1.06.005-2.124.909-2.381 2.035-.225 1.1.437 1.98 1.524 1.965" transform="translate(-1) translate(187)"/>
            <path fill="#0C2834" d="M0 37.988C0 38.526 36.038 39 71.502 39 106.975 39 143 38.526 143 37.988c0-.541-36.025-.988-71.498-.988C36.038 37 0 37.447 0 37.988" transform="translate(-1) translate(187)"/>
            <path fill="#50535A" d="M14.214 12.177l.228-.2c-.32-.527-.438-1.477-.42-2.036.117-4.697 4.963-7.363 12.525-7.363h4.188c-2.43 1.456-4.474 3.38-6.037 7.004-.676 1.56-3.879 9.954-5.189 13.72-1.624 4.491-2.666 6.528-3.957 7.282l.223.397c3.624.231 5.791-1.665 7.183-5.174 1.323-3.312 3.082-8.588 3.94-10.933 2.79-7.556 4.011-10.728 6.235-12.296 3.095-.015 6.082-.015 6.082-.015 3.327-.096 4.74-.939 5.785-2.26L44.77 0c-.831.463-2.644.549-4.166.555h-15.04c-8.455 0-13.641 2.848-14.477 7.085-.42 2.047.695 4.262 3.127 4.537" transform="translate(-1) translate(187)"/>
        </g>
    </g>
</svg>
