<svg xmlns="http://www.w3.org/2000/svg" width="24" height="24" viewBox="0 0 24 24">
    <g fill="#FFF" fill-rule="evenodd">
        <path d="M14.852 15.148c4.554 4.075 7.251 5.647 8.09 4.715.84-.93-1.189-3.11-6.086-6.538l-2.004 1.823z" transform="translate(.375 1.875)"/>
        <path d="M9.563.275c5.939 0 9.21 3.181 9.21 8.959 0 2.179-.467 3.987-1.365 5.396-.162.255-.34.493-.532.721-.438.527-.955.978-1.54 1.36-.25.165-.514.317-.79.455-1.358.672-3.021 1.027-4.983 1.027-4.018 0-6.815-1.457-8.204-4.188.099-.023.19-.08.256-.166l2.803-3.64 3.71 2.628.043.027c.206.115.47.057.608-.141l4.723-6.804.124 3.119.004.047c.033.233.238.408.479.399.256-.01.456-.226.446-.483l-.158-4.013-.004-.049c-.033-.225-.226-.397-.458-.398l-4.07-.015-.047.002c-.235.023-.418.22-.42.46l.003.048c.023.235.22.419.46.42l2.824.01-4.403 6.34-3.69-2.613-.042-.027c-.2-.111-.454-.062-.596.122l-2.972 3.86C.566 12.01.354 10.706.354 9.233.354 3.92 3.119.804 8.18.336c.443-.04.904-.061 1.382-.061z" transform="translate(.375 1.875)"/>
    </g>
</svg>
