<svg xmlns="http://www.w3.org/2000/svg" width="18" height="18" viewBox="0 0 18 18">
    <path fill="#50535A" d="M18 17.154l-4.588-4.516c2.717-2.97 2.624-7.562-.279-10.42C11.68.788 9.748 0 7.693 0c-2.055 0-3.987.788-5.44 2.218C.8 3.648 0 5.55 0 7.573c0 2.023.8 3.924 2.254 5.354 1.452 1.43 3.384 2.218 5.439 2.218 1.782 0 3.472-.593 4.837-1.684L17.142 18l.858-.846zM3.112 12.082c-1.223-1.205-1.898-2.806-1.898-4.51 0-1.703.674-3.304 1.898-4.509 1.223-1.204 2.85-1.868 4.581-1.868 1.73 0 3.357.664 4.58 1.868 2.527 2.486 2.527 6.532 0 9.019-1.223 1.204-2.85 1.868-4.58 1.868s-3.357-.664-4.58-1.868z"/>
</svg>
