<svg xmlns="http://www.w3.org/2000/svg" width="24" height="25" viewBox="0 0 24 25">
    <g fill="#50535A" fill-rule="evenodd" stroke="#FFF" stroke-width=".959">
        <path stroke-linecap="round" stroke-linejoin="round" d="M14.484 11.339c2.71 1.105 4.866 3.515 4.866 8.399 0 2.645-3.142 2.762-9.676 2.762C3.141 22.5 0 22.383 0 19.738c0-4.884 2.158-7.294 4.867-8.399 2.71-1.105 2.651-1.217 5.209-1.214 2.455.003 1.698.109 4.408 1.214z" transform="translate(1.875 .75)"/>
        <path d="M3.825 5.625C3.825.976 7.067 0 9.787 0c2.721 0 5.963.976 5.963 5.625 0 4.648-3.242 5.625-5.963 5.625-2.72 0-5.962-.977-5.962-5.625" transform="translate(1.875 .75)"/>
        <path d="M5.793 19.2c.683-.733 6.162-6.495 6.255-6.59.11-.11.145-.28.089-.43-.677-1.812.272-3.362 1.188-4.343.943-1.01 1.91-1.528 2.877-1.537.176 0 .248.14.265.183.023.054.063.193-.05.327-1.408 1.678-2.084 3.077-.802 4.452.467.5.925.733 1.442.733.734 0 1.572-.492 2.716-1.596.112-.108.287-.098.393.007.056.054.084.124.084.208 0 1.048-.481 2.095-1.43 3.112-1.326 1.42-2.7 1.868-4.028 1.299-.14-.06-.3-.022-.402.095-.07.08-.14.164-.21.25-.09.11-.182.224-.286.335-3.343 3.87-5.195 5.97-5.554 6.3-.538.496-1.595.906-2.547-.259-.953-1.165-.684-1.812 0-2.545z" transform="translate(1.875 .75)"/>
    </g>
</svg>
