<svg xmlns="http://www.w3.org/2000/svg" width="26" height="26" viewBox="0 0 26 26">
    <g fill="#5CC500" fill-rule="evenodd" stroke="#FFF" stroke-width="1.187">
        <path stroke-linecap="round" stroke-linejoin="round" d="M17.722 13.096c2.935 1.198 5.272 3.809 5.272 9.099 0 2.865-3.404 2.992-10.482 2.992-7.078 0-10.48-.127-10.48-2.992 0-5.29 2.337-7.901 5.272-9.099 2.935-1.197 2.872-1.318 5.643-1.315 2.66.004 1.84.118 4.775 1.315z"/>
        <path d="M6.175 6.906c0-5.036 3.513-6.093 6.46-6.093s6.459 1.057 6.459 6.093S15.582 13 12.634 13c-2.946 0-6.459-1.058-6.459-6.094"/>
        <path d="M8.307 21.613c.74-.794 6.675-7.037 6.776-7.139a.447.447 0 0 0 .096-.466c-.733-1.964.296-3.643 1.287-4.706 1.022-1.094 2.07-1.655 3.118-1.664a.31.31 0 0 1 .287.197.337.337 0 0 1-.054.355c-1.526 1.818-2.258 3.334-.87 4.823.506.542 1.002.794 1.563.794.795 0 1.703-.533 2.941-1.728a.306.306 0 0 1 .427.006c.06.059.09.135.09.226 0 1.135-.52 2.27-1.549 3.371-1.436 1.539-2.924 2.024-4.364 1.407a.378.378 0 0 0-.435.103c-.076.087-.15.178-.227.271-.097.12-.198.243-.31.363-3.622 4.192-5.627 6.467-6.016 6.826-.584.537-1.728.981-2.76-.28-1.032-1.263-.74-1.964 0-2.759z"/>
    </g>
</svg>
