<svg xmlns="http://www.w3.org/2000/svg" xmlns:xlink="http://www.w3.org/1999/xlink" width="24" height="25" viewBox="0 0 24 25">
    <defs>
        <path id="prefix__a" d="M0 0H20.06V17.886H0z"/>
    </defs>
    <g fill="none" fill-rule="evenodd">
        <g transform="translate(1.5 .375) translate(.272)">
            <mask id="prefix__b" fill="#fff">
                <use xlink:href="#prefix__a"/>
            </mask>
            <path stroke="#50535A" stroke-linecap="round" stroke-linejoin="round" stroke-width=".82" d="M7.411 3.182C8.825 1.51 10.236.41 11.013.81c.852.44.962 2.222.446 4.694M10.266 13.121c-.478 6.346-4.103 10.794-5.773 10.175-.762-.283-1.1-1.593-1.042-3.528" mask="url(#prefix__b)"/>
            <path stroke="#50535A" stroke-linecap="round" stroke-linejoin="round" stroke-width=".82" d="M4.952 21.006C2.397 19.267.71 16.255.715 12.833c.008-4.423 2.84-8.151 6.71-9.327l.068-.02c.793-.235 1.63-.362 2.493-.366M8.483 14.29l1.534-1.353c.145-.128.362-.11.485.042l1.296 1.601" mask="url(#prefix__b)"/>
            <path stroke="#50535A" stroke-linecap="round" stroke-linejoin="round" stroke-width=".82" d="M13.711 3.907c.866.39 1.664.912 2.371 1.542l-.936-.74c2.513 1.746 4.209 4.768 4.203 8.156-.008 5.373-4.187 9.722-9.332 9.713-.326 0-.647-.019-.964-.053" mask="url(#prefix__b)"/>
            <path stroke="#50535A" stroke-linecap="round" stroke-linejoin="round" stroke-width=".82" d="M7.004 10.67c.035-1.656 1.367-2.988 3.005-2.988 1.66 0 3.005 1.368 3.005 3.055 0 .296-.041.582-.119.853m.108-.919c.153-.024.31-.037.47-.037 1.659 0 3.004 1.368 3.004 3.055s-1.345 3.055-3.005 3.055h-1.598M8.17 11.132c-.475-.318-1.043-.504-1.654-.504-1.66 0-3.005 1.368-3.005 3.056 0 1.687 1.345 3.055 3.005 3.055H7.56" mask="url(#prefix__b)"/>
        </g>
        <path fill="#50535A" d="M1.49 20.903h.67c.217 0 .4-.017.55-.051.15-.035.271-.096.364-.183.17-.16.256-.422.256-.784 0-.32-.074-.555-.222-.702-.092-.091-.212-.157-.36-.196-.147-.039-.336-.058-.567-.058H1.49v1.974zm0 2.25H.874v-4.706H2.23c.34 0 .625.032.85.097.226.064.406.165.54.302.12.12.208.265.263.437.055.172.083.368.083.588 0 .505-.13.885-.387 1.142-.13.124-.292.22-.488.286-.196.066-.437.1-.723.1H1.49v1.754zM6.788 21.9H4.997l-.388 1.252h-.602l1.501-4.706h.706l1.632 4.706h-.643L6.788 21.9zm-.159-.482l-.76-2.325H5.86l-.712 2.325h1.48zm4.835 1.692c-.138.042-.305.075-.501.1-.196.025-.377.038-.543.038-.715 0-1.247-.2-1.595-.602-.348-.401-.522-1.008-.522-1.82 0-.43.05-.81.152-1.138.102-.328.256-.597.464-.808.166-.175.372-.305.619-.392.246-.088.517-.131.812-.131.208 0 .405.016.592.048.187.032.356.076.508.13l-.083.469c-.156-.042-.317-.074-.48-.097-.164-.023-.32-.034-.467-.034-.48 0-.833.126-1.059.378-.147.16-.253.368-.318.623-.064.254-.097.567-.097.939 0 .357.034.664.1.918.067.255.18.462.336.623.13.133.29.23.48.292.192.062.429.093.71.093.05 0 .11-.002.176-.007.067-.005.139-.011.215-.02.076-.01.152-.02.228-.032.076-.011.149-.024.218-.037l.055.467zm1.48-2.235l1.972-2.429h.692l-1.605 1.947 1.68 2.759h-.698l-1.37-2.305-.67.805v1.5h-.616v-4.706h.615v2.429zm3.431 1.678c.18.05.374.094.581.13.208.038.409.056.602.056.194 0 .359-.017.495-.052.136-.034.25-.088.342-.161.17-.133.256-.324.256-.571 0-.198-.06-.355-.18-.472-.12-.116-.27-.217-.45-.302-.18-.085-.374-.163-.584-.234-.21-.071-.404-.16-.584-.268-.18-.108-.33-.245-.45-.41-.12-.165-.18-.383-.18-.653 0-.207.038-.389.114-.547.076-.158.182-.29.319-.396.136-.105.3-.184.494-.237.194-.053.408-.08.643-.08.208 0 .413.017.616.05.203.031.385.075.547.13l-.09.468c-.176-.046-.35-.08-.526-.104-.175-.023-.341-.034-.498-.034-.323 0-.577.055-.761.165-.185.11-.277.291-.277.544 0 .178.06.323.18.433.12.11.27.206.45.289.18.082.376.161.588.237.212.076.408.17.588.282.18.113.33.254.45.423.12.17.18.388.18.654 0 .206-.033.39-.098.55-.064.16-.157.296-.276.406-.282.266-.7.399-1.252.399-.111 0-.226-.005-.346-.014-.12-.009-.239-.024-.357-.045-.117-.02-.231-.044-.342-.072-.11-.027-.21-.06-.297-.096l.103-.468z" transform="translate(1.5 .375)"/>
    </g>
</svg>
