<svg xmlns="http://www.w3.org/2000/svg" width="53" height="50" viewBox="0 0 53 50">
    <path fill="#50535A" fill-rule="nonzero" d="M45.376 0H7.629C3.422 0 0 3.399 0 7.58v26.018c0 3.734 2.495 6.757 5.906 7.436v6.337C5.906 48.747 7.204 50 8.628 50c1.4 0 2.08-.906 2.304-1.208l5.962-7.617h28.482c4.204 0 7.624-3.4 7.624-7.58V7.581C52.996 3.4 49.58 0 45.376 0zm-2.787 16.277H10.375a1.511 1.511 0 1 1 0-3.021H42.59a1.511 1.511 0 1 1 0 3.02zM32.267 28.059H10.378a1.511 1.511 0 1 1 0-3.02h21.89a1.511 1.511 0 1 1 0 3.02z"/>
</svg>
