<svg xmlns="http://www.w3.org/2000/svg" width="37" height="50" viewBox="0 0 37 50">
    <g fill="#50535A" fill-rule="nonzero">
        <path d="M36.097 26.04c-.034-2.767-.843-4.912-2.404-6.374-1.497-1.403-3.623-2.114-6.318-2.114H8.685c-2.7 0-4.824.712-6.314 2.117C.813 21.14.022 23.29.022 26.06v.017l.01 1.088-.01 14.273c0 2.77.79 4.92 2.35 6.39 1.486 1.405 3.611 2.117 6.313 2.117h18.69c2.696 0 4.822-.708 6.318-2.114 1.558-1.463 2.37-3.608 2.405-6.374V26.058l-.001-.018zM21.22 39.283c-.768.74-1.826 1.116-3.144 1.116s-2.375-.376-3.143-1.116c-.8-.772-1.204-1.86-1.204-3.235 0-1.374.406-2.463 1.204-3.235.769-.74 1.826-1.117 3.144-1.117s2.376.376 3.144 1.116c.804.774 1.207 1.862 1.207 3.236s-.403 2.464-1.208 3.237v-.002z"/>
        <path d="M7.111 20.477c-.81 0-1.465-.656-1.465-1.465v-7.528C5.646 5.18 11.108.057 17.82.057h.478c6.713 0 12.175 5.126 12.175 11.427v7.469a1.465 1.465 0 0 1-2.93 0v-7.47c0-4.684-4.147-8.498-9.245-8.498h-.478c-5.1 0-9.245 3.811-9.245 8.499v7.527a1.465 1.465 0 0 1-1.465 1.466z"/>
    </g>
</svg>
