<svg xmlns="http://www.w3.org/2000/svg" width="50" height="50" viewBox="0 0 50 50">
    <g fill="#50535A" fill-rule="nonzero">
        <path d="M35.324 49.982c-.62 0-1.209-.266-1.62-.73l-11.966-12.12a2.263 2.263 0 0 1-.388-2.505 2.171 2.171 0 0 1 1.964-1.257l5.247-.042-.015-8.353a3.466 3.466 0 0 1 3.458-3.461h6.673a3.458 3.458 0 0 1 3.458 3.46l.01 8.354 5.251.042c.844.003 1.61.494 1.964 1.26a2.263 2.263 0 0 1-.286 2.395c-.033.04-.067.078-.104.115L36.943 49.256c-.411.462-1 .726-1.619.726zM17.581 28.509h-6.666a3.457 3.457 0 0 1-3.458-3.458l-.01-8.346-5.245-.043a2.171 2.171 0 0 1-1.96-1.259 2.262 2.262 0 0 1 .287-2.39c.033-.04.068-.08.104-.116L12.648.787a2.168 2.168 0 0 1 3.24.004l11.955 12.11c.036.036.07.074.102.113.546.676.657 1.605.285 2.39a2.171 2.171 0 0 1-1.963 1.257l-5.239.043.007 8.346a3.466 3.466 0 0 1-3.454 3.459z"/>
    </g>
</svg>
