<svg xmlns="http://www.w3.org/2000/svg" width="205" height="40" viewBox="0 0 205 40">
    <path fill="#5BC500" fill-rule="evenodd" d="M142.22 11.924h-3.3c-.275 0-.406.106-.406.376l.004 18.529c0 .269.13.376.406.376h3.297c.277 0 .409-.107.409-.376l-.004-18.53c0-.269-.13-.375-.406-.375zm-30.592 12.443c-.32 3.127-1.895 3.617-4.427 3.617h-.107c-2.532 0-4.11-.49-4.423-3.617-.101-.943-.179-1.725-.179-2.812 0-1.09.078-1.87.179-2.814.313-3.127 1.891-3.615 4.423-3.615h.107c2.532 0 4.108.488 4.427 3.615.099.944.176 1.725.176 2.814 0 1.087-.077 1.869-.176 2.812zm3.707 2.506c.396-1.312.618-2.82.618-5.318 0-2.497-.222-4.01-.618-5.32-1.002-3.35-3.645-4.682-7.931-4.682h-.51c-4.286 0-6.93 1.333-7.936 4.682-.393 1.31-.616 2.823-.616 5.32 0 2.497.223 4.006.616 5.318 1.006 3.35 3.65 4.685 7.935 4.685h.511c4.286 0 6.929-1.336 7.93-4.685zM87.29 11.553h-.996c-2.866 0-4.768.762-5.69 1.893h-.023c-.922-1.13-2.943-1.893-5.81-1.893H73.75c-3.23 0-5.878 1.125-6.942 3.43-.457.992-.607 2.323-.607 3.76v12.02c0 .265.154.442.424.442h3.253c.269 0 .422-.177.422-.441l.007-10.012c0-1.433.034-2.474.106-3.116.188-1.68 1.433-2.495 3.808-2.495h.272c2.373 0 3.677.816 3.863 2.495.073.642.108 1.683.108 3.116v10.015c0 .265.161.438.43.438h3.262c.267 0 .42-.208.42-.473l.004-9.98c0-1.433.035-2.474.107-3.116.185-1.68 1.489-2.495 3.864-2.495h.272c2.375 0 3.618.816 3.805 2.495.072.642.105 1.683.105 3.116v10.015c0 .274.159.438.427.438h3.261c.269 0 .421-.208.421-.473V18.744c0-1.438-.153-2.77-.61-3.761-1.06-2.305-3.712-3.43-6.94-3.43zm84.436 19.652c.282 0 .437-.153.437-.401v-2.75c0-.248-.155-.402-.437-.402h-.437c-1.31 0-2.115-.316-2.607-.835-.652-.687-.786-1.8-.786-3.122v-8.356h3.63c.274 0 .41-.106.41-.375v-2.669c0-.268-.136-.374-.41-.374h-3.63V8.46c0-.268-.136-.376-.41-.376h-3.3c-.275 0-.4.108-.4.376v15.458c0 2.69.532 4.408 1.715 5.583 1.108 1.102 2.842 1.704 5.351 1.704h.874zm-20.306-8.647c.89.33 1.628.602 2.51.915 1.887.671 2.694 1.204 2.694 2.358 0 1.494-1.257 2.287-4.104 2.287h-.103c-1.606 0-3.446-.316-5.063-.834-.334-.107-.518.02-.518.357v2.463c0 .308.054.497.4.617 1.543.533 3.673.831 5.411.831h.134c5.056 0 7.797-2.25 7.797-5.89v-.054c0-1.404-.461-2.675-1.322-3.521-.843-.83-2.125-1.475-4.101-2.21a575.531 575.531 0 0 0-2.605-.964c-1.645-.6-2.106-1.165-2.106-2.01 0-1.4 1.37-1.946 3.573-1.946l.168.001c1.272 0 2.812.183 4.68.522.346.063.541-.013.541-.37V12.58c0-.333-.09-.426-.433-.5-1.215-.258-3.417-.528-4.654-.528h-.298c-2.58 0-4.495.48-5.77 1.593-1.037.904-1.73 2.27-1.73 3.904v.117c0 1.513.525 2.734 1.423 3.565.839.776 1.97 1.266 3.476 1.826zm-26.536 8.647h3.573c.308 0 .444-.1.57-.336 2.315-4.36 5.855-11.81 6.095-18.566.01-.269-.102-.384-.451-.384h-3.329c-.388 0-.495.125-.516.471-.154 2.462-.676 5.32-1.433 7.873-.783 2.64-1.778 5.153-2.732 7.021-.954-1.868-1.95-4.381-2.731-7.021-.763-2.57-1.287-5.448-1.436-7.92-.023-.353-.211-.423-.552-.423h-3.353c-.354 0-.453.166-.427.525.47 6.62 2.527 11.76 6.095 18.438.125.235.314.322.627.322zm79.127-19.653h-2.21c-3.173 0-5.651 1.1-6.713 3.404-.459.994-.603 2.325-.603 3.76V30.83c0 .269.131.376.406.376h3.299c.275 0 .399-.107.399-.376V20.697c0-1.431.029-2.474.103-3.117.187-1.679 1.205-2.47 3.578-2.47h1.756c.283 0 .406-.146.406-.42v-2.72c0-.28-.136-.418-.421-.418zM186.859 24.28c0 1.446-.047 2.297-.571 2.9-.557.639-1.543.943-2.879.943h-.65c-2.465 0-3.9-.992-3.9-2.89 0-.87.344-1.645.874-2.103.625-.54 1.541-.802 3.112-.802h.347c1.188 0 2.545.118 3.667.415v1.537zM35.639 6.056C37.567 1.935 41.237-.19 44.435.013c2.89.184 5.143 2.263 6.545 5.508 1.467 3.392 2.307 7.312 2.574 11.61.228 3.676.097 6.091-.409 9.685-.1.71-.285 1.714-.502 2.37-.551 1.661-1.93 3.037-3.65 2.792-1.615-.23-2.235-1.662-2.34-3.097-.055-.73.077-2.044.15-2.697.2-1.801.456-4.252.438-6.475-.02-2.514-.458-4.224-2.205-4.785-1.883-.606-4.118 1.376-5.794 5.077-1.457 3.219-2.363 6.361-3.692 10.568-1.776 5.621-5.222 7.407-9.899 7.601-4.587.19-7.442-2.583-8.99-5.175-1.715-2.87-3.817-6.628-5.043-8.75-1.027-1.776-2.109-3.194-3.399-2.91-.767.169-1.923.552-1.801 3.486.09 2.192 1.128 5.27 1.91 7.82.253.832.705 2.327.861 3.35.324 2.115-.57 3.042-1.35 3.426-.715.352-2.415.434-3.437-.859a8.935 8.935 0 0 1-1.11-1.88c-.861-2.031-2.138-5.72-2.86-9.992-.782-4.633-.429-8.525.485-12.259 2.096-8.569 6.686-9.796 9.172-9.835 3.146-.05 4.657 1.59 5.98 2.9 1.408 1.394 4.04 5.544 5.368 7.724 1.523 2.5 3.602 4.253 6.016 3.999 1.974-.208 3.258-1.452 4.132-3.47.861-1.991 2.28-5.89 4.056-9.69zm146.633 5.497c2.161 0 3.832.317 4.931.79 2.288.986 3.761 2.732 3.761 6.507v5.525c0 2.712-.537 4.409-1.922 5.555-1.205.996-3.206 1.623-5.313 1.623h-.954c-5.357 0-7.996-2.357-7.996-6.18v-.163c0-1.899.696-3.387 1.753-4.375 1.376-1.285 3.534-1.841 5.83-1.841h.367c1.38 0 2.882.175 4.13.438v-.53c0-1.798-.409-2.624-1.233-3.18-.827-.557-2.202-.714-3.903-.714h-.17c-1.202 0-2.765.159-4.282.387-.347.052-.506-.055-.506-.363v-2.468c0-.335.114-.486.406-.537 1.728-.313 3.52-.474 4.838-.474z"/>
</svg>
