<svg xmlns="http://www.w3.org/2000/svg" width="70" height="50" viewBox="0 0 70 50">
    <g fill="#50535A" fill-rule="nonzero">
        <path d="M37.377 46.041h-17.24a1.97 1.97 0 0 0-1.964 1.965 1.97 1.97 0 0 0 1.965 1.965h17.24a1.97 1.97 0 0 0 1.964-1.965 1.97 1.97 0 0 0-1.965-1.965z"/>
        <path d="M61.69 12.495h-3.213v-.02c0-3.91-.933-6.954-2.76-9.057C53.743 1.16 50.796.02 46.935.02H11.542c-3.85 0-6.807 1.149-8.782 3.398C.923 5.511 0 8.556 0 12.466v17.318c0 3.91.923 6.955 2.76 9.057 1.975 2.26 4.922 3.399 8.782 3.399h32.495v.353c0 4.804 2.545 7.348 7.348 7.348H61.69c4.803 0 7.347-2.544 7.347-7.348v-22.75c0-4.804-2.544-7.348-7.347-7.348zm3.418 30.108c0 1.316-.246 2.23-.727 2.711-.481.472-1.385.717-2.701.717H51.385c-1.316 0-2.22-.235-2.701-.717-.482-.471-.727-1.385-.727-2.71V19.842c0-2.554.864-3.419 3.418-3.419H61.69c2.622 0 3.418.796 3.418 3.419v22.76z"/>
        <path d="M56.532 38.38c-1.59 0-2.622 1.03-2.622 2.632 0 .982.373 1.571.697 1.896.324.334.923.727 1.925.727s1.602-.393 1.926-.727c.314-.325.697-.914.697-1.896 0-1.601-1.031-2.633-2.623-2.633z"/>
    </g>
</svg>
