<svg xmlns="http://www.w3.org/2000/svg" width="70" height="70" viewBox="0 0 70 70">
    <g fill="none" fill-rule="evenodd">
        <path d="M0 0h70v70H0z"/>
        <path fill="#B6B7B7" fill-rule="nonzero" d="M59.081 19.884L40.774 2.515A1.878 1.878 0 0 0 39.481 2H14.744c-1.906 0-3.708 1.803-3.708 3.708v58.584c0 1.971 1.733 3.708 3.708 3.708H55.96c1.971 0 3.708-1.733 3.708-3.708V21.246c0-.515-.212-1.008-.586-1.362zM47.228 57.907h-23.8a1.878 1.878 0 0 1 0-3.756h23.8a1.878 1.878 0 1 1 0 3.756zm0-10.07h-23.8a1.878 1.878 0 0 1 0-3.755h23.8a1.878 1.878 0 1 1 0 3.756zm0-10.068h-23.8a1.878 1.878 0 0 1 0-3.756h23.8a1.878 1.878 0 0 1 0 3.756zm.47-16.57c-2.186 0-4.023-.681-5.309-1.972-1.286-1.291-1.972-3.123-1.972-5.309V7.357l14.595 13.842h-7.315z"/>
    </g>
</svg>
