<svg xmlns="http://www.w3.org/2000/svg" width="39" height="38" viewBox="0 0 39 38">
    <g fill="none" fill-rule="evenodd">
        <path d="M-1-1h40v40H-1z"/>
        <g fill="#FFF" fill-rule="nonzero">
            <path d="M35.571 2.162c.3 0 .544.242.544.54v14.64a.539.539 0 0 1-.548.54.534.534 0 0 1-.38-.159l-2.509-2.494-.395-.393a4.93 4.93 0 0 0-.396.37l-13.23 13.156a.546.546 0 0 1-.77 0l-8.146-8.1a.538.538 0 0 1 0-.765L22.97 6.343a.538.538 0 0 0 0-.764l-2.508-2.494a.538.538 0 0 1 .384-.923h14.724m0-2.162H20.847c-1.1 0-2.09.659-2.511 1.669a2.691 2.691 0 0 0 .59 2.945l1.353 1.347L8.203 17.968a2.692 2.692 0 0 0 0 3.822l8.147 8.102a2.73 2.73 0 0 0 3.844 0l12.077-12.009 1.378 1.37a2.704 2.704 0 0 0 1.918.793c1.502 0 2.72-1.21 2.723-2.702V2.703A2.714 2.714 0 0 0 35.57 0zM1.142 37.994c-.44 0-.837-.263-1.005-.667a1.077 1.077 0 0 1 .236-1.179l8.991-8.939a1.092 1.092 0 0 1 1.834.477c.1.378-.014.78-.296 1.052L1.91 37.676c-.203.203-.48.318-.768.318zM10.917 38c-.44 0-.836-.263-1.004-.667a1.077 1.077 0 0 1 .235-1.178c2.024-2.013 4.411-4.494 4.435-4.52a1.091 1.091 0 0 1 1.84.44c.109.373.006.777-.268 1.055-.024.025-2.428 2.524-4.47 4.553-.203.203-.48.317-.768.317zM1.241 28.378c-.44 0-.835-.263-1.003-.667a1.077 1.077 0 0 1 .234-1.177c2.024-2.012 4.411-4.494 4.435-4.519a1.091 1.091 0 0 1 1.84.439c.109.374.006.777-.268 1.055-.024.025-2.428 2.524-4.47 4.554-.203.202-.48.316-.768.315z"/>
        </g>
    </g>
</svg>
