<svg xmlns="http://www.w3.org/2000/svg" width="42" height="42" viewBox="0 0 42 42">
    <g fill="none" fill-rule="evenodd" transform="translate(1 1)">
        <circle cx="20" cy="20" r="20" stroke="#B6B7B7" stroke-width="1.765"/>
        <path fill="#B6B7B7" fill-rule="nonzero" d="M30.176 22.43v7.843h-4.538v-7.319c0-1.838-.657-3.093-2.3-3.093-1.254 0-2 .846-2.329 1.664-.12.292-.15.7-.15 1.109v7.639h-4.54s.06-12.395 0-13.68h4.54v1.94c-.01.014-.022.03-.03.044h.03v-.044c.603-.931 1.68-2.26 4.09-2.26 2.988 0 5.227 1.955 5.227 6.156zM11.57 10C10.016 10 9 11.02 9 12.363c0 1.313.987 2.365 2.509 2.365h.03c1.584 0 2.568-1.052 2.568-2.365C14.077 11.02 13.123 10 11.57 10zm-2.3 20.273h4.54v-13.68h-4.54v13.68z"/>
    </g>
</svg>
