<svg xmlns="http://www.w3.org/2000/svg" width="41" height="40" viewBox="0 0 41 40">
    <g fill="none" fill-rule="evenodd">
        <path d="M.654 0h39.692v40H.654z"/>
        <path fill="#FFF" d="M20.5 32.311c.253 0 .505.064.734.189l7.596 4.193c.893.491 1.636.083 1.913-.115.658-.47.969-1.25.831-2.087l-1.45-8.878c-.08-.485.076-.98.419-1.33l6.146-6.289c.567-.58.749-1.402.486-2.198-.243-.736-.815-1.24-1.53-1.35L27.15 13.15a1.529 1.529 0 0 1-1.152-.862L22.2 4.209c-.332-.707-.968-1.13-1.7-1.13s-1.368.423-1.7 1.13L15 12.287c-.217.463-.65.787-1.151.863l-8.494 1.296c-.715.11-1.288.614-1.531 1.35-.263.796-.08 1.618.487 2.197l6.145 6.29c.343.35.499.845.42 1.33L9.425 34.49c-.137.837.174 1.617.83 2.087.279.197 1.022.605 1.914.115l7.597-4.193c.228-.125.48-.189.733-.189M29.698 40c-.798 0-1.599-.201-2.334-.607L20.5 35.606l-6.863 3.787a4.796 4.796 0 0 1-5.146-.303c-1.61-1.15-2.406-3.102-2.08-5.099l1.325-8.105-5.6-5.731c-1.37-1.4-1.833-3.443-1.209-5.331.604-1.829 2.126-3.14 3.972-3.422l7.69-1.173 3.45-7.338C16.877 1.108 18.586 0 20.5 0c1.914 0 3.623 1.108 4.462 2.89l3.45 7.339 7.69 1.173c1.845.281 3.368 1.593 3.971 3.422.624 1.888.161 3.93-1.208 5.332l-5.6 5.73 1.324 8.105c.326 1.997-.47 3.95-2.08 5.099a4.82 4.82 0 0 1-2.81.91"/>
    </g>
</svg>
