<svg xmlns="http://www.w3.org/2000/svg" width="84" height="56" viewBox="0 0 84 56">
    <g fill="none" fill-rule="evenodd">
        <path d="M2-13h80v80H2z"/>
        <g stroke="#FFF" stroke-width="2.667">
            <path d="M10.333 53.098V41.65C5.027 37.245 2 31.123 2 24.733 2 11.867 13.963 1.4 28.667 1.4c14.703 0 26.666 10.467 26.666 23.333 0 12.867-11.963 23.334-26.666 23.334-3.387 0-6.694-.557-9.845-1.656l-8.489 6.687z"/>
            <path d="M74.637 46.45l-7.26-6.673c-5.561 1.14-10.274 1.196-14.821-1.63l-.423-.925.11-1.295c2.183-3.878 3.25-7.881 3.25-11.783 0-3.903-.426-7.608-3.25-10.716l-.11-1.295.423-.925c3.324-2.066 6.188-3.159 10.3-3.159C73.412 8.05 82 15.27 82 24.144c0 4.95-2.737 9.632-7.363 12.674v9.631z"/>
        </g>
    </g>
</svg>
