<svg xmlns="http://www.w3.org/2000/svg" width="40" height="34" viewBox="0 0 40 34">
    <g fill="none" fill-rule="evenodd">
        <path d="M0-3h40v40H0z"/>
        <g fill-rule="nonzero" stroke="#FFF" stroke-width="1.876">
            <path d="M9.65 33l-6.817-.005c-.597 0-1.06-.165-1.374-.49C1.154 32.19 1 31.742 1 31.172v-12.04c0-1.165.65-1.806 1.832-1.806l6.819.004c1.181 0 1.832.642 1.832 1.807v12.04c0 .57-.154 1.017-.458 1.33-.316.327-.779.492-1.374.492zM23.41 33l-6.818-.005c-.597 0-1.06-.165-1.375-.49-.304-.314-.458-.762-.458-1.332V12.137c0-1.166.65-1.808 1.832-1.808l6.818.005c1.182 0 1.832.642 1.832 1.807v19.037c0 .57-.154 1.017-.458 1.33-.316.327-.778.492-1.374.492zM37.168 33l-6.818-.005c-.596 0-1.059-.165-1.374-.49-.305-.314-.459-.762-.459-1.332V2.807c0-1.165.651-1.807 1.833-1.807l6.818.005c1.181 0 1.832.641 1.832 1.807v28.366c0 .57-.154 1.017-.458 1.33-.316.327-.779.492-1.374.492z"/>
        </g>
    </g>
</svg>
