<svg xmlns="http://www.w3.org/2000/svg" width="40" height="28" viewBox="0 0 40 28">
    <g fill="none" fill-rule="evenodd">
        <path d="M0-6h40v40H0z"/>
        <g fill="#FFF" fill-rule="nonzero" stroke="#FFF" stroke-width=".784">
            <path d="M33.697 23.182H6.919c-1.99 0-3.502-.567-4.495-1.686-.936-1.056-1.41-2.61-1.41-4.624v-9.52c0-2.014.474-3.57 1.41-4.624.993-1.119 2.505-1.686 4.495-1.686h26.778c1.989 0 3.501.567 4.495 1.686.934 1.054 1.41 2.61 1.41 4.624v9.52c0 2.014-.475 3.57-1.41 4.624-.993 1.119-2.506 1.686-4.495 1.686zM6.919 2.122c-3.28 0-4.807 1.662-4.807 5.23v9.52c0 3.568 1.527 5.23 4.807 5.23h26.778c3.28 0 4.806-1.663 4.806-5.23v-9.52c0-3.568-1.527-5.23-4.806-5.23H6.919zM39.039 27.46H1.549A.545.545 0 0 1 1 26.92c0-.298.246-.54.55-.54h37.489c.303 0 .549.242.549.54 0 .298-.246.54-.55.54z"/>
            <path d="M20.394 18.97c-1.104 0-2.097-.139-2.95-.414a.538.538 0 0 1-.337-.676.551.551 0 0 1 .678-.35c.744.24 1.621.36 2.609.36 1.932 0 3.408-.458 4.388-1.363 1.01-.934 1.523-2.376 1.523-4.287 0-1.886-.499-3.316-1.483-4.25a.534.534 0 0 1-.014-.763.556.556 0 0 1 .777-.013c1.208 1.145 1.819 2.836 1.819 5.026 0 2.221-.63 3.928-1.868 5.076-1.19 1.097-2.921 1.655-5.142 1.655z"/>
            <path d="M24.32 10.618a.553.553 0 0 1-.428-.2.533.533 0 0 1-.11-.453c.054-.26.106-.634.154-.996.05-.387.104-.786.171-1.093.173-.784.756-1.158 1.557-1.001.275.054.813.2 1.703.442l.46.125c.292.08.463.377.383.665a.55.55 0 0 1-.676.376l-.46-.125c-.837-.228-1.39-.378-1.626-.425-.145-.029-.198-.01-.202-.01a.46.46 0 0 0-.067.18c-.054.263-.11.64-.156 1.005-.05.383-.103.78-.17 1.083a.547.547 0 0 1-.534.427zM15.384 17.161a.554.554 0 0 1-.38-.152c-1.21-1.145-1.819-2.836-1.819-5.025 0-2.222.629-3.929 1.868-5.076 1.19-1.1 2.92-1.657 5.14-1.657 1.103 0 2.094.139 2.948.413.278.1.426.398.334.675a.551.551 0 0 1-.675.351c-.743-.239-1.62-.36-2.607-.36-1.931 0-3.408.46-4.388 1.364-1.01.933-1.522 2.376-1.522 4.287 0 1.886.498 3.315 1.483 4.25a.533.533 0 0 1 .127.59.55.55 0 0 1-.51.337l.001.003z"/>
            <path d="M15.27 17.384c-.116 0-.232-.012-.346-.035-.275-.054-.812-.2-1.703-.442l-.463-.126a.545.545 0 0 1-.41-.383.534.534 0 0 1 .152-.536.556.556 0 0 1 .553-.12l.463.126c.835.227 1.387.378 1.623.424.145.028.198.01.201.009a.46.46 0 0 0 .067-.18c.055-.262.11-.64.156-1.004.051-.384.104-.78.17-1.083a.55.55 0 0 1 .65-.404.54.54 0 0 1 .424.63c-.055.261-.106.635-.154.997-.051.386-.105.786-.172 1.092-.147.665-.589 1.035-1.21 1.035z"/>
        </g>
    </g>
</svg>
