<svg xmlns="http://www.w3.org/2000/svg" width="41" height="34" viewBox="0 0 41 34">
    <g fill="none" fill-rule="evenodd">
        <path d="M.654-3h39.692v40H.654z"/>
        <path fill="#FFF" d="M6.527 2.243c-1.824 0-3.615 1.611-3.615 3.253v15.31c0 1.701 1.561 3.252 3.275 3.252h4.404c.624 0 1.13.502 1.13 1.121v6.138l.123-.183c.214-.331 4.243-6.323 4.414-6.577.21-.312.562-.5.939-.5h17.616c1.714 0 3.275-1.55 3.275-3.252V5.495c0-1.702-1.56-3.252-3.275-3.252H6.527zM11.427 34c-.119 0-.241-.01-.368-.034-1.597-.288-1.597-1.746-1.597-2.225V26.3H6.187c-1.416 0-2.83-.599-3.88-1.642-1.05-1.043-1.653-2.447-1.653-3.854V5.495C.654 2.62 3.454 0 6.527 0h28.286c1.416 0 2.83.599 3.88 1.643 1.05 1.043 1.653 2.448 1.653 3.853v15.31c0 1.406-.602 2.81-1.652 3.853-1.05 1.043-2.465 1.642-3.881 1.642H17.8a2639.7 2639.7 0 0 0-4.059 6.047c-.304.47-1.07 1.652-2.315 1.652z"/>
        <g fill="#FFF">
            <path d="M21.524 19.139a1.2 1.2 0 0 1-.348.848c-.232.247-.525.37-.879.37a1.18 1.18 0 0 1-.87-.36 1.154 1.154 0 0 1-.357-.84c0-.332.117-.618.348-.857.232-.24.525-.36.88-.36.353 0 .646.117.878.351.232.233.348.516.348.848M20.27 16.92c-.658 0-1.191-.537-1.191-1.2v-1.94c0-1.294 1.106-2.169 1.914-2.808.17-.133.329-.26.45-.367l.087-.077c.736-.651 1.09-1.001 1.09-1.826 0-1.357-1.239-2.302-2.35-2.302-1.34 0-2.35.99-2.35 2.302 0 .662-.533 1.2-1.19 1.2-.659 0-1.192-.538-1.192-1.2C15.538 6.065 17.617 4 20.27 4 22.834 4 25 6.153 25 8.702c0 1.948-1.098 2.92-1.9 3.63l-.084.074c-.172.152-.358.299-.554.454-.296.234-.904.715-1.002.954v1.907c0 .662-.534 1.2-1.191 1.2"/>
        </g>
    </g>
</svg>
