<svg xmlns="http://www.w3.org/2000/svg" width="42" height="42" viewBox="0 0 42 42">
    <g fill="none" fill-rule="evenodd" transform="translate(1 1)">
        <circle cx="20" cy="20" r="20" stroke="#B6B7B7" stroke-width="1.765"/>
        <g fill="#B6B7B7" fill-rule="nonzero">
            <path d="M26.507 16.917h-1.33v-.741c-.502.562-.941.837-1.4.837-.413 0-.69-.18-.84-.52-.075-.21-.138-.526-.138-.998v-5.39h1.33v5.533c.032.18.113.251.283.251.25 0 .49-.221.771-.597v-5.187h1.33v6.812h-.006zm-4.706-4.59c0-.728-.144-1.272-.414-1.613-.351-.478-.91-.657-1.475-.657-.64 0-1.129.18-1.474.657-.276.341-.42.897-.42 1.614v2.432c0 .717.125 1.219.401 1.553.351.478.929.717 1.487.717.565 0 1.142-.239 1.506-.717.251-.334.377-.836.377-1.553v-2.444l.012.012zm-1.317 2.57c.062.675-.157 1.016-.565 1.016-.414 0-.628-.34-.565-1.016v-2.7c-.063-.676.15-.993.565-.993.408 0 .627.317.565.992v2.701zm-3.935-1.685v3.705h-1.4v-3.705s-1.461-4.565-1.756-5.414h1.474l.986 3.562.978-3.556H18.3l-1.757 5.402.006.006zM30.756 21.802s-.207-1.374-.835-1.99c-.797-.807-1.694-.807-2.096-.848-2.93-.198-7.329-.198-7.329-.198h-.012s-4.393 0-7.323.198c-.408.047-1.306.047-2.103.848-.627.61-.828 1.99-.828 1.99s-.213 1.625-.213 3.25v1.524c0 1.626.213 3.245.213 3.245s.201 1.386.828 1.996c.797.8 1.845.777 2.31.854 1.675.156 7.122.204 7.122.204s4.411 0 7.342-.204c.407-.047 1.298-.047 2.095-.848.628-.61.835-1.996.835-1.996s.2-1.62.2-3.25v-1.524c0-1.626-.206-3.251-.206-3.251zm-16.14 8.378h-1.399V22.41h-1.475v-1.266h4.418v1.266h-1.537v7.769h-.007zm5.052 0h-1.33v-.741c-.503.561-.942.836-1.4.836-.414 0-.69-.18-.84-.52-.076-.209-.139-.525-.139-.998v-5.33h1.33v5.48c.032.18.113.25.283.25.25 0 .49-.22.772-.597v-5.133h1.324v6.753zm4.832-2.02c0 .621-.044 1.064-.126 1.35-.176.502-.546.76-1.048.76-.452 0-.916-.264-1.343-.766v.682h-1.267v-9.041h1.255v2.94c.414-.478.878-.76 1.349-.76.502 0 .84.282 1.004.778.094.28.176.717.176 1.356v2.7zm2.804-4.84c.64 0 1.142.239 1.506.705.251.346.408.872.408 1.595v1.393h-2.522v1.207c0 .579.16.888.52.932l.088.005.094-.005c.254-.033.41-.198.465-.49.012-.06.012-.359.012-.849h1.33v.192c0 .394-.03.675-.043.794-.044.275-.145.52-.295.735-.352.49-.879.73-1.537.73-.66 0-1.161-.228-1.532-.694-.27-.34-.439-.836-.439-1.554V25.65c0-.717.157-1.279.427-1.625.364-.46.878-.705 1.518-.705zm-4.662 1.123l-.012.006c.37 0 .54.197.54.873v2.904c0 .675-.158.926-.534.926-.214 0-.446-.096-.653-.299v-4.1c.22-.19.452-.31.66-.31z"/>
            <path d="M27.875 25.262c0-.628-.169-.813-.59-.813-.42 0-.602.18-.602.807v.747h1.192v-.735"/>
        </g>
    </g>
</svg>
