<svg xmlns="http://www.w3.org/2000/svg" width="41" height="40" viewBox="0 0 41 40">
    <g fill="none" fill-rule="evenodd">
        <path d="M.654 0h39.692v40H.654z"/>
        <path fill="#FFF" d="M22.708 0h-4.416a2.397 2.397 0 0 0-2.388 2.406V5.59c-.861.198-1.674.456-2.436.775l-2.064-2.08a2.373 2.373 0 0 0-3.377 0L4.905 7.43a2.418 2.418 0 0 0 0 3.403l2.063 2.08a15.306 15.306 0 0 0-.769 2.455H3.042a2.397 2.397 0 0 0-2.388 2.406v4.45a2.397 2.397 0 0 0 2.388 2.406h3.157c.197.868.453 1.688.77 2.456l-2.064 2.079a2.415 2.415 0 0 0-.699 1.701c0 .638.251 1.25.7 1.702l3.121 3.146a2.372 2.372 0 0 0 3.377 0l2.064-2.08c.762.318 1.575.577 2.436.775v3.183c0 1.33 1.07 2.407 2.388 2.407h4.416a2.397 2.397 0 0 0 2.387-2.407V34.41a15.03 15.03 0 0 0 2.436-.775l2.064 2.08a2.371 2.371 0 0 0 3.377 0l3.122-3.146a2.416 2.416 0 0 0 .7-1.702c0-.638-.252-1.25-.7-1.701l-2.063-2.08c.316-.767.573-1.587.769-2.455h3.158a2.397 2.397 0 0 0 2.388-2.406v-4.45c0-1.329-1.07-2.406-2.388-2.406H34.8a15.27 15.27 0 0 0-.769-2.456l2.063-2.08a2.418 2.418 0 0 0 0-3.403l-3.122-3.146a2.373 2.373 0 0 0-3.377 0l-2.064 2.08a14.979 14.979 0 0 0-2.436-.774V2.406A2.397 2.397 0 0 0 22.708 0m0 2.406v5.221c2.055.222 3.83.772 5.296 1.664l3.28-3.305 3.122 3.146-3.279 3.304c.867 1.447 1.426 3.222 1.65 5.34h5.18v4.449h-5.18c-.224 2.117-.783 3.892-1.65 5.338l3.279 3.304-3.123 3.147-3.279-3.305c-1.466.892-3.24 1.441-5.296 1.664v5.22h-4.416v-5.22c-2.056-.223-3.83-.772-5.296-1.664l-3.28 3.305-3.122-3.147 3.279-3.304c-.867-1.446-1.427-3.22-1.651-5.338h-5.18v-4.45h5.18c.224-2.117.784-3.892 1.65-5.339L6.595 9.132l3.122-3.146 3.28 3.305c1.465-.892 3.24-1.442 5.296-1.664v-5.22h4.416"/>
        <path fill="#FFF" d="M20.996 11c-2.588 0-4.647.725-6.12 2.156-1.536 1.491-2.314 3.626-2.314 6.344 0 2.718.778 4.853 2.314 6.344 1.473 1.43 3.532 2.156 6.12 2.156s4.647-.725 6.12-2.156c1.536-1.491 2.315-3.626 2.315-6.344 0-2.718-.779-4.853-2.315-6.344C25.643 11.725 23.584 11 20.996 11m0 2.365c3.86 0 6.088 1.939 6.088 6.135s-2.227 6.135-6.088 6.135-6.088-1.94-6.088-6.135c0-4.196 2.227-6.135 6.088-6.135"/>
    </g>
</svg>
