<svg xmlns="http://www.w3.org/2000/svg" width="42" height="42" viewBox="0 0 42 42">
    <g fill="none" fill-rule="evenodd" transform="translate(1 1)">
        <circle cx="20" cy="20" r="20" stroke="#B6B7B7" stroke-width="1.765"/>
        <path fill="#B6B7B7" fill-rule="nonzero" d="M16.184 28.255c7.42 0 11.479-6.638 11.479-12.394 0-.188-.004-.376-.012-.563a8.598 8.598 0 0 0 2.013-2.256c-.723.347-1.5.58-2.317.686a4.329 4.329 0 0 0 1.774-2.41 7.74 7.74 0 0 1-2.562 1.058C25.823 11.53 24.775 11 23.614 11c-2.227 0-4.034 1.95-4.034 4.355 0 .342.035.675.104.994-3.353-.183-6.326-1.916-8.316-4.552a4.612 4.612 0 0 0-.546 2.19c0 1.511.712 2.845 1.795 3.626a3.782 3.782 0 0 1-1.827-.545v.056c0 2.11 1.39 3.87 3.236 4.27a3.76 3.76 0 0 1-1.822.074c.514 1.731 2.003 2.99 3.769 3.026-1.38 1.168-3.12 1.864-5.01 1.864-.326 0-.647-.02-.963-.06 1.785 1.236 3.906 1.957 6.184 1.957"/>
    </g>
</svg>
