<svg xmlns="http://www.w3.org/2000/svg" width="31" height="42" viewBox="0 0 31 42">
    <g fill="none" fill-rule="evenodd">
        <path d="M-4 1h40v40H-4z"/>
        <g stroke="#FFF" stroke-linecap="round" stroke-linejoin="round" stroke-width="2.22">
            <path d="M2.022 22.745l-.008-.891c0-3.887 2.169-5.693 5.916-5.693h15.36c3.745 0 5.916 1.806 5.965 5.693v12.434c-.049 3.887-2.218 5.692-5.964 5.692H7.93c-3.744 0-5.916-1.806-5.916-5.692l.008-11.543zM6.638 16.159v-6.086c0-4.448 3.94-8.053 8.803-8.053h.39c4.862 0 8.803 3.605 8.803 8.053v6.038"/>
            <path d="M12.939 29.692c0 1.839.997 2.702 2.71 2.702 1.712 0 2.71-.861 2.71-2.702 0-1.84-.998-2.703-2.71-2.703-1.713 0-2.71.864-2.71 2.703z"/>
        </g>
    </g>
</svg>
