<svg xmlns="http://www.w3.org/2000/svg" width="60" height="80" viewBox="0 0 60 80">
    <g fill="none" fill-rule="evenodd">
        <path d="M-9 0h80v80H-9z"/>
        <g stroke="#FFF" stroke-width="2.866">
            <path d="M40.6 24.8l.016-5.651c0-6.161-4.898-11.167-10.906-11.167-6.007 0-10.906 5.006-10.906 11.167v6.738l-.852.358c-1.517.639-2.44 1.07-3.358 1.6l-2.078 1.197V19.15C12.516 9.476 20.223 1.6 29.71 1.6c9.488 0 17.194 7.876 17.194 17.549L47 28l-2.4-.8a27.509 27.509 0 0 0-3.2-1.6l-.8-.8z"/>
            <path d="M30.284 23.38C14.799 23.38 2.2 35.72 2.2 50.89c0 15.17 12.599 27.51 28.084 27.51s28.083-12.34 28.083-27.51c0-15.17-12.598-27.51-28.083-27.51z"/>
            <path d="M33.035 55.023v5.245c0 1.778-1.485 3.23-3.325 3.23s-3.324-1.452-3.324-3.23v-5.245l-.196-.11c-2.093-1.188-3.357-3.268-3.357-5.552 0-3.59 3.092-6.495 6.877-6.495 3.786 0 6.878 2.905 6.878 6.495 0 2.284-1.264 4.364-3.357 5.551l-.196.111z"/>
        </g>
    </g>
</svg>
