<svg xmlns="http://www.w3.org/2000/svg" width="40" height="42" viewBox="0 0 40 42">
    <g fill="none" fill-rule="evenodd">
        <path d="M0 1h40v40H0z"/>
        <path stroke="#FFF" stroke-linecap="round" stroke-linejoin="round" stroke-width="2.22" d="M13.865 2.025c-1.986-.039-2.782.622-2.813 2.7l.006 13.675c0 .514-.43 1.427-.913 1.427l-7.562-.012c-1.818.012-1.966 1.113-.913 2.132l17.755 17.649c.451.464.75.425 1.038.121l17.748-17.292c1.152-1.091.714-2.594-.645-2.573l-7.495-.009c-.485 0-1.17-.53-1.17-1.043L28.862 4.63c.027-1.9-.83-2.664-2.658-2.606H13.865z"/>
    </g>
</svg>
