<svg xmlns="http://www.w3.org/2000/svg" width="69" height="50" viewBox="0 0 69 50">
    <path fill="#5BC500" fill-rule="evenodd" d="M13.622 5.74c-3.112.049-8.853 1.583-11.476 12.294-1.143 4.668-1.585 9.533-.607 15.323.903 5.341 2.501 9.951 3.578 12.491.371.876.946 1.789 1.39 2.35 1.278 1.616 3.405 1.513 4.3 1.073.975-.48 2.094-1.639 1.689-4.283-.196-1.278-.761-3.147-1.079-4.186-.977-3.19-2.276-7.036-2.389-9.776-.152-3.667 1.294-4.146 2.254-4.358 1.614-.354 2.967 1.418 4.253 3.64 1.534 2.65 4.163 7.348 6.309 10.935 1.936 3.24 5.51 6.708 11.248 6.47 5.85-.243 10.163-2.475 12.384-9.502 1.663-5.258 2.797-9.186 4.62-13.21 2.096-4.626 4.893-7.103 7.249-6.346 2.186.701 2.732 2.838 2.758 5.981.023 2.779-.298 5.843-.548 8.094-.09.816-.256 2.459-.188 3.372.132 1.793.908 3.584 2.928 3.871 2.152.306 3.878-1.414 4.566-3.492.273-.819.504-2.073.63-2.962.632-4.491.796-7.51.51-12.104-.333-5.374-1.384-10.274-3.22-14.514C63.028 2.845 60.21.246 56.594.017 52.59-.237 47.999 2.418 45.59 7.569c-2.221 4.75-3.997 9.624-5.075 12.112-1.093 2.523-2.699 4.077-5.17 4.337-3.019.318-5.62-1.874-7.526-4.999-1.662-2.725-4.955-7.912-6.716-9.655-1.655-1.637-3.545-3.686-7.481-3.624"/>
</svg>
