<svg xmlns="http://www.w3.org/2000/svg" width="296" height="36" viewBox="0 0 296 36">
    <g fill="none" fill-rule="evenodd">
        <text fill="#50535A" font-family="TelefonicaCap-Regular, Telefonica Cap" font-size="19.8" font-style="italic" transform="translate(-1)">
            <tspan x="0" y="22.9">UNA MARCA DE</tspan>
        </text>
        <path fill="#50535A" d="M202.56 8.742c.478 0 .646.328.646.743 0 1.97-2.439 4.485-5.542 6.32.78-3.047 2.976-7.088 4.896-7.063zm2.873 6.722c-1.935 2.798-4.632 5.325-6.95 5.325-.99.036-1.42-.528-1.403-1.658 0-.683.158-1.633.294-2.118 2.193-1.105 4.424-2.341 6.41-4.389 1.112-1.19 1.85-2.384 1.888-3.61.02-1.157-.71-1.755-2.16-1.773-2.1-.027-4.622 1.405-6.256 3.147-2.151 2.34-3.81 5.648-3.856 8.59-.025 2.08.969 3.732 3.662 3.638 2.873-.083 5.706-2.296 7.16-3.896-.17.69-.289 1.331-.289 1.86 0 1.854.92 3.165 2.745 3.72l.366-.167c-.169-.502-.209-1.026-.169-1.608.126-1.804.85-3.83 1.905-6.498C210.786 10.98 213.71 5.202 215 1.8l-3.07.58c-.478.099-.778.465-.938.808a397.062 397.062 0 0 0-4.9 10.836c-.22.464-.42.952-.659 1.44zM281.238 9.048c.909-.436 1.667-.46 2.304-.33-.239.516-1.335 2.777-2.183 4.809-1.35 3.186-3.373 6.404-5.253 6.86-.643.193-1.024-.092-1.016-.751.052-2.82 3.084-9.118 6.148-10.588zM254.6 20.43c0 1.413.876 2.284 2.546 2.232 1.73-.032 3.49-1.082 4.942-2.522.28 1.517 1.353 2.626 3.534 2.548 2.275-.086 4.45-1.546 5.959-3.24v.49c0 1.565.788 2.735 2.532 2.735 1.884 0 4.046-1.446 5.757-3.94l.06.033c-.165.589-.343 1.591-.37 2.258-.027 1.879 1.059 2.964 2.571 3.275l.374-.15c-.558-1.367.215-4.759.538-5.884 1.127-3.72 2.92-7.97 3.957-10.169-.473-.416-1.583-.696-2.762-.754-3.903-.142-7.84 1.505-10.71 6.703-.49.913-1.03 1.953-1.43 3.056-.406.554-.833 1.05-1.013 1.23-1.037 1.024-2.51 2.334-4.009 2.353-.857.019-1.322-.597-1.305-1.684.02-4.157 3.602-10.48 6.034-10.496.67 0 .956.3.956.883 0 .688-.455 1.645-1.117 2.256l.287.262c1.632-.64 3.151-1.802 3.16-3.046 0-1.41-1.59-1.676-3.006-1.66-1.9.025-4.263.975-6.162 3.1-2.378 2.66-3.607 5.853-3.85 8.133-1.087 1.298-2.304 2.181-3.112 2.187-.458.022-.787-.232-.787-.722 0-.436.24-1.319.662-2.462 1.053-2.688 2.572-6.027 4.443-9.998 0 0-2.847.488-3.258.61-.428.112-.762.4-.95.8-1.221 2.647-2.665 5.698-3.567 7.979-.557 1.433-.904 2.79-.904 3.604zM219.519 8.617c.47 0 .663.327.663.74-.018 1.962-2.403 4.467-5.49 6.295.779-3.035 2.935-7.06 4.827-7.035zM210.5 18.813c-.023 2.027 1.04 3.717 3.757 3.623 2.915-.082 5.565-1.778 7.862-4.203-.574 1.558-1.072 2.898-1.37 3.622-.85 2.135-1.477 3.87-2.786 4.877l.144.255c3.843.223 5.279-2.49 6.857-6.92 1.581-4.437 2.918-8.297 3.96-10.975 1.682 0 4.066.06 5.398-.244-3.481 1.557-6.44 7.15-6.09 10.832.156 1.636 1.122 2.756 3.183 2.756 3.994 0 7.357-4.76 8.64-7.9.734-1.8 1.22-3.332 1.3-4.875.95-.171 1.859-.335 2.316-.407.871-.115.704.855.426 1.591-1.628 4.594-4.464 11.264-4.472 11.367h3.12c1.352-2.837 2.192-4.65 3.263-6.576 1.305-2.27 4.208-6.002 5.359-6.011.409 0 .517.262.415.66-.2 1.54-3.94 7.424-3.876 10.331.033 1.906 1.033 3.052 2.765 3.488l.364-.205c-.222-.418-.253-.936-.253-1.545-.031-1.938 1.534-5.331 2.138-6.649.967-2.072 2.686-5.093 2.575-6.753-.058-.81-.66-1.528-2.041-1.54-2.542-.016-5.072 2.475-7.199 5.81l-.059-.015c.852-1.934 1.519-3.736 1.496-4.615-.02-.805-.473-1.12-1.423-1.12-.667.022-1.583.28-2.483.521a90.67 90.67 0 0 1-4.034.978c-.89.121-1.205.283-1.174.611.183 5.094-3.26 11.086-5.558 11.107-.99 0-1.21-.728-1.21-1.724-.012-3.526 2.865-9.446 5.679-10.386.243-.073.48-.12.644-.176l.358-.95c-.597.126-2.012.148-2.764.17h-6.171c1.631-3.913 3.92-6.452 7.27-6.601 2.08-.072 3.48.724 3.606 1.923.085 1.02-.195 1.851-1.005 2.693l.225.234c1.836-.873 3.102-2.356 3.114-3.37.026-1.565-1.856-2.533-4.854-2.501-3.804.024-8.504.887-11.776 7.734-.982.145-1.875.523-2.616 1.321l.134.3c.537-.192 1.174-.217 1.883-.217-.459 1.117-1.366 3.555-2.277 6.06-2.759 3.671-5.538 5.417-7.566 5.417-1.113.036-1.561-.584-1.57-1.651-.011-.68.15-1.613.288-2.11 2.173-1.1 4.354-2.332 6.332-4.371 1.078-1.186 1.827-2.375 1.865-3.597.013-1.152-.693-1.748-2.136-1.766-2.071-.027-4.553 1.4-6.18 3.135-2.12 2.33-3.761 5.626-3.793 8.557zM263.211 5.4c.963-.011 1.931-.847 2.14-1.824.233-1.015-.396-1.797-1.369-1.776-.953.004-1.911.818-2.143 1.832-.202.99.394 1.782 1.372 1.768"/>
        <path fill="#0C2834" d="M167.3 34.19c0 .483 32.435.91 64.351.91 31.926 0 64.349-.427 64.349-.91 0-.488-32.423-.89-64.349-.89-31.916 0-64.351.402-64.351.89"/>
        <path fill="#50535A" d="M180.092 10.96l.206-.18c-.288-.475-.395-1.33-.378-1.833.105-4.227 4.466-6.627 11.272-6.627h3.77c-2.187 1.31-4.027 3.043-5.434 6.304-.608 1.404-3.49 8.958-4.67 12.348-1.462 4.042-2.399 5.875-3.561 6.553l.2.358c3.262.208 5.212-1.498 6.466-4.657 1.19-2.98 2.773-7.729 3.545-9.84 2.51-6.8 3.61-9.654 5.612-11.066 2.785-.014 5.473-.014 5.473-.014 2.995-.086 4.267-.844 5.207-2.033L207.593 0c-.748.417-2.38.494-3.75.5h-13.536c-7.608 0-12.277 2.563-13.029 6.376-.378 1.842.626 3.836 2.814 4.084"/>
    </g>
</svg>
