<?xml version="1.0" encoding="UTF-8"?>
<svg width="507px" height="542px" viewBox="0 0 507 542" version="1.1" xmlns="http://www.w3.org/2000/svg" xmlns:xlink="http://www.w3.org/1999/xlink">
    <!-- Generator: Sketch 61 (89581) - https://sketch.com -->
    <title>m_extralarge</title>
    <desc>Created with Sketch.</desc>
    <g id="home" stroke="none" stroke-width="1" fill="none" fill-rule="evenodd">
        <g id="Home-extralarge" transform="translate(-933.000000, -2587.000000)" fill="#FFFFFF">
            <g id="Movistar-te-acompaña" transform="translate(0.000000, 2587.000000)">
                <g id="Group-5">
                    <g id="logos/m_logo_blanco" transform="translate(933.000000, -1.000000)">
                        <path d="M408.143969,0.996345319 C438.95053,39.7890978 479.661123,103.008344 507.00096,147.167191 L507,543 L372.700797,543.000316 C338.687197,484.458745 303.248969,421.424593 280.401629,381.932212 C255.607766,339.061194 229.49204,304.857305 198.356807,311.701656 C179.832861,315.776101 151.948697,325.032953 154.878231,395.799619 C156.585037,437.21369 172.327819,491.737786 188.127325,543.000258 L32.6832369,543.000628 C24.2802216,511.41501 16.5149326,476.974543 10.4021765,440.797212 C-8.46116597,329.035916 0.0594915616,235.14499 22.1024505,145.060453 C37.5573538,81.9273956 58.6234705,35.3132339 82.1416426,0.989600039 Z" id="m_extralarge"></path>
                    </g>
                </g>
            </g>
        </g>
    </g>
</svg>