<svg xmlns="http://www.w3.org/2000/svg" width="68" height="64" viewBox="0 0 68 64">
    <path fill="#00A9E0" fill-rule="nonzero" d="M33.561 0l-.278.008c-1.333.09-2.52.648-3.396 1.568L1.397 31.499a5.067 5.067 0 0 0-.986 5.492l.097.212a5.072 5.072 0 0 0 4.562 2.858h3.914v15.878c0 4.843 3.221 8.061 8.067 8.061h32.944l.267-.003c4.697-.117 7.8-3.306 7.796-8.06V40.061h3.913a5.072 5.072 0 0 0 4.66-3.067l.091-.225a5.067 5.067 0 0 0-1.072-5.267l-7.591-7.996V8.066a5.068 5.068 0 0 0-5.071-5.07h-8.985l-.22.006a5.06 5.06 0 0 0-3.508 1.627l-.068.076-2.969-3.126A5.073 5.073 0 0 0 33.561 0zm-.073 4.002L33.56 4c.294 0 .575.12.777.334l8.594 9.05V8.066c0-.59.479-1.07 1.071-1.07h8.985a1.073 1.073 0 0 1 1.072 1.07v17.038l8.69 9.152a1.068 1.068 0 0 1-.778 1.805h-7.914V55.94C54.06 58.572 52.632 60 49.995 60H17.05c-2.638 0-4.067-1.428-4.067-4.061V36.06H5.071a1.068 1.068 0 1 1-.777-1.805l28.49-29.922c.186-.195.437-.313.704-.332z"/>
</svg>
