<svg xmlns="http://www.w3.org/2000/svg" width="70" height="70" viewBox="0 0 70 70">
    <g fill="none" fill-rule="evenodd">
        <path d="M0 0h70v70H0z"/>
        <g fill="#B6B7B7" fill-rule="nonzero">
            <path d="M43.499 58.972c4.536-4.68 7.292-8.046 10.883-13.624 4.2-6.521 7.192-13.101 8.734-19.578 1.475-6.194.516-11.599-3.364-14.926-4.295-3.683-11.732-4.487-18.835-.545-1.32.733-2.624 1.488-3.892 2.241a2.612 2.612 0 0 1-1.292.337c-.48 0-.927-.126-1.306-.345a153.848 153.848 0 0 0-3.879-2.233c-7.102-3.942-14.54-3.138-18.834.545-3.88 3.327-4.845 8.732-3.37 14.926 1.542 6.477 4.53 13.057 8.73 19.578 3.59 5.578 6.346 8.944 10.882 13.624.899.926 2.227 2.186 3.231 2.907.99.711 2.11 1.223 3.237 1.46.31.074.626.117.948.134l.03.002c.11.006.22.007.331.007.11 0 .22 0 .33-.007l.03-.002c.323-.017.64-.06.949-.134 1.126-.237 2.247-.749 3.236-1.46 1.004-.721 2.333-1.98 3.231-2.907"/>
            <path d="M35.733 61.793h.011c.084 0 .155-.001.22-.004l.018-.002h.019c.232-.014.45-.044.646-.091l.048-.01c.885-.187 1.784-.594 2.597-1.18.872-.625 2.073-1.759 2.889-2.591.033-.041.067-.081.105-.119 4.67-4.818 7.265-8.065 10.675-13.362 4.185-6.499 7.049-12.91 8.512-19.055.692-2.907.799-5.53.317-7.795-.478-2.246-1.533-4.081-3.138-5.458-1.879-1.611-4.49-2.58-7.35-2.727-3.164-.162-6.47.66-9.565 2.377a150.631 150.631 0 0 0-3.879 2.234 4.318 4.318 0 0 1-2.125.556c-.76 0-1.503-.197-2.15-.57l-.019-.011a149.572 149.572 0 0 0-3.836-2.209c-3.094-1.717-6.401-2.54-9.563-2.377-2.861.147-5.472 1.116-7.351 2.727-1.606 1.377-2.662 3.213-3.14 5.458-.484 2.267-.378 4.89.314 7.795 1.465 6.154 4.327 12.565 8.506 19.055 3.41 5.297 6.004 8.544 10.675 13.362.816.84 2.092 2.055 3.004 2.71.814.586 1.713.993 2.599 1.18l.047.01c.196.047.413.077.646.09l.016.001.022.002c.064.003.136.004.219.004h.011zm.052 3.379h-.052a7.508 7.508 0 0 1-.44-.01l-.029-.002a7.02 7.02 0 0 1-1.21-.173c-1.336-.284-2.667-.884-3.852-1.736-1.375-.987-2.995-2.624-3.46-3.103-4.787-4.939-7.585-8.443-11.09-13.885-4.385-6.811-7.398-13.575-8.952-20.101-1.689-7.093-.299-12.988 3.914-16.6 2.444-2.096 5.774-3.352 9.378-3.537 3.793-.195 7.728.772 11.376 2.797 1.24.688 2.52 1.424 3.91 2.25.133.075.29.115.455.115a.931.931 0 0 0 .447-.11c1.39-.826 2.672-1.564 3.917-2.255 3.648-2.025 7.582-2.993 11.377-2.797 3.604.185 6.934 1.441 9.378 3.536 4.21 3.61 5.598 9.505 3.908 16.6-1.552 6.519-4.566 13.282-8.958 20.102-3.475 5.397-6.256 8.888-10.97 13.762-.035.042-.07.083-.11.123-.463.478-2.082 2.115-3.458 3.103-1.186.852-2.517 1.452-3.852 1.736-.383.09-.79.148-1.211.173l-.028.002a7.378 7.378 0 0 1-.388.01z"/>
        </g>
    </g>
</svg>
