<svg xmlns="http://www.w3.org/2000/svg" width="70" height="70" viewBox="0 0 70 70">
    <g fill="none" fill-rule="evenodd">
        <path d="M0 0h70v70H0z"/>
        <path fill="#B6B7B7" fill-rule="nonzero" d="M24.307 52.426s.019 4.7-2.116 6.835c-2.1 2.098-6.675 2.116-6.831 2.116h-.005c-.575-.002-.713-.337-.306-.744l2.076-2.075c.406-.407.672-1.205.591-1.775l-.425-2.977c-.081-.57-.614-1.101-1.183-1.183l-2.977-.425a1.5 1.5 0 0 0-.217-.014c-.541 0-1.201.248-1.558.606L9.28 54.865c-.158.158-.305.234-.426.234-.19 0-.316-.188-.318-.54 0 0-.019-4.7 2.117-6.836 2.099-2.098 6.675-2.116 6.83-2.116h.011c.575 0 1.374-.33 1.78-.735l23.713-23.713c.407-.407.738-1.21.736-1.785 0 0-.019-4.7 2.116-6.835 2.099-2.099 6.675-2.117 6.831-2.117h.005c.575.003.713.337.306.744l-2.075 2.075c-.407.407-.673 1.206-.592 1.776l.425 2.976c.082.57.614 1.102 1.183 1.183l2.977.426c.07.01.142.014.217.014.541 0 1.201-.248 1.558-.606l2.076-2.075c.158-.158.305-.234.426-.234.19 0 .316.188.317.54 0 0 .02 4.7-2.116 6.835-2.099 2.099-6.675 2.117-6.831 2.117h-.011c-.574 0-1.374.33-1.78.735L25.044 50.64c-.407.407-.738 1.21-.736 1.786M65 53.008c-.048-2.575-1.313-5.122-3.759-7.567-.99-.99-2.015-1.796-3.046-2.396-1.646-1.02-3.345-1.538-5.052-1.538-2.682 0-5.307 1.265-7.803 3.76a15.73 15.73 0 0 0-1.36 1.529c-.063.04-.17.08-.366.08-.561 0-1.923-.323-4.738-2.496-.48-.37-.983-.78-1.513-1.23l13.55-13.55a19.925 19.925 0 0 0 2.949-.324c2.566-.48 4.56-1.417 5.93-2.786 1.385-1.386 2.33-3.412 2.804-6.021.31-1.703.313-3.09.312-3.242-.003-.802-.2-1.53-.586-2.163a3.66 3.66 0 0 0-3.145-1.777c-1.036 0-2.045.438-2.84 1.234l-1.608 1.608-.824-.118-.117-.823 1.608-1.608c1.18-1.181 1.548-2.805.958-4.238-.59-1.433-1.995-2.326-3.665-2.333h-.018c-.259 0-1.638.016-3.315.33-2.565.48-4.56 1.417-5.93 2.786-1.386 1.386-2.328 3.412-2.803 6.021a19.912 19.912 0 0 0-.306 2.857L26.773 32.546c-.761-.9-1.467-1.797-2.05-2.647-1.432-2.088-1.787-3.43-1.512-3.885.63-.503.991-.825 1.52-1.354 2.045-2.045 3.27-4.189 3.64-6.374.37-2.186-.106-4.366-1.417-6.48-.6-1.03-1.406-2.056-2.396-3.046C22.063 6.265 19.464 5 16.835 5c-2.619 0-5.262 1.257-7.858 3.736-.928.887-1.82 2.125-2.114 2.532l-.038.053a1.8 1.8 0 0 0-.054.074c-2.423 3.51-2.358 8.95.182 15.318 1.967 4.93 5.31 10.204 9.804 15.503-.616.032-1.544.111-2.588.307-2.566.48-4.56 1.418-5.93 2.787-1.386 1.385-2.329 3.412-2.804 6.02a19.218 19.218 0 0 0-.312 3.242c.003.803.2 1.53.586 2.164a3.661 3.661 0 0 0 3.145 1.776c1.036 0 2.045-.438 2.84-1.233l1.608-1.608.824.117.117.824-1.608 1.608c-1.181 1.18-1.548 2.805-.958 4.237.59 1.433 1.995 2.327 3.665 2.334h.013c.264 0 1.643-.016 3.32-.33 2.566-.48 4.56-1.417 5.93-2.787 1.385-1.385 2.329-3.411 2.803-6.02.182-.998.258-1.886.29-2.482 3.675 3.127 7.332 5.694 10.928 7.66C43.61 63.558 48.306 65 52.205 65h.001c2.541 0 4.694-.597 6.4-1.773l.073-.054.053-.039c.407-.293 1.646-1.186 2.531-2.113 2.529-2.647 3.786-5.343 3.736-8.013"/>
    </g>
</svg>
