<svg xmlns="http://www.w3.org/2000/svg" width="51" height="51" viewBox="0 0 51 51">
    <path fill="#FFF" fill-rule="nonzero" d="M50.052 24.98c.002.38-.07.758-.214 1.112-.45 1.105-1.526 1.777-2.809 1.765l-9.274.01a.64.64 0 0 0-.143.097l-.047 17.46c.021 1.563-.368 2.71-1.187 3.513-.818.802-1.973 1.168-3.536 1.122H17.486c-1.067.02-2.603-.075-3.67-1.106-1.07-1.03-1.221-2.558-1.237-3.618v-.022l.008-17.027a1.267 1.267 0 0 0-.134-.397l-9.051.014h-.01C1.211 27.889.472 26.85.221 26.23c-.428-1.06-.038-2.28 1.067-3.353L23.423.91c.214-.221.841-.853 1.755-.847.386 0 .959.125 1.509.694l22.115 21.515c.811.77 1.25 1.755 1.25 2.707z"/>
</svg>
