<svg xmlns="http://www.w3.org/2000/svg" width="50" height="50" viewBox="0 0 50 50">
    <path fill="#F7F7F7" fill-rule="nonzero" d="M24.991 49.976c-1.362 0-2.217-1.097-2.496-1.458-.494-.634-.927-1.418-1.34-2.177-.35-.636-.987-1.796-1.342-2.057-.453.034-1.64.75-2.287 1.141-1.711 1.034-3.48 2.102-5.03 1.205-1.57-.907-1.524-2.992-1.481-5.007.016-.744.045-2.104-.143-2.511-.406-.188-1.766-.16-2.51-.143-2.016.043-4.1.087-5.008-1.481-.897-1.551.172-3.32 1.205-5.03.392-.65 1.108-1.835 1.141-2.288-.263-.355-1.42-.991-2.062-1.34-.76-.416-1.543-.847-2.177-1.34C.002 26.353.002 25.327.002 24.992c0-1.362 1.098-2.218 1.459-2.497.634-.493 1.418-.927 2.177-1.34.635-.35 1.796-.987 2.057-1.341-.035-.453-.75-1.641-1.142-2.287-1.033-1.712-2.102-3.48-1.204-5.03.907-1.57 2.992-1.525 5.007-1.482.744.016 2.104.045 2.51-.142.188-.407.16-1.767.143-2.51-.043-2.017-.087-4.1 1.481-5.008 1.551-.897 3.32.171 5.03 1.205.648.391 1.834 1.107 2.287 1.14.356-.26.991-1.421 1.34-2.056.416-.76.847-1.543 1.34-2.177C23.624.009 24.65.009 24.985.009c1.363 0 2.218 1.098 2.497 1.459.493.634.927 1.418 1.34 2.177.358.635.994 1.792 1.35 2.053.453-.034 1.64-.75 2.287-1.14 1.707-1.035 3.48-2.104 5.03-1.206 1.57.908 1.523 2.992 1.48 5.007-.015.744-.044 2.105.143 2.511.407.188 1.767.16 2.511.143 2.016-.043 4.1-.087 5.007 1.48.897 1.552-.171 3.32-1.205 5.031-.391.649-1.107 1.833-1.14 2.286.26.357 1.421.992 2.056 1.341.76.417 1.543.848 2.177 1.341 1.459 1.136 1.459 2.161 1.459 2.497 0 1.362-1.098 2.217-1.459 2.496-.634.494-1.418.927-2.177 1.341-.635.349-1.796.986-2.057 1.34.034.454.75 1.641 1.141 2.287 1.034 1.712 2.102 3.48 1.205 5.03-.907 1.57-2.992 1.525-5.007 1.481-.744-.015-2.104-.045-2.51.143-.188.407-.16 1.767-.143 2.51.042 2.016.087 4.1-1.481 5.008-1.551.897-3.32-.171-5.032-1.205-.647-.391-1.833-1.108-2.286-1.141-.356.26-.992 1.422-1.34 2.057-.417.759-.848 1.543-1.341 2.177-1.135 1.463-2.16 1.463-2.498 1.463z"/>
</svg>
