<svg xmlns="http://www.w3.org/2000/svg" width="50" height="51" viewBox="0 0 50 51">
    <g fill="#FFF" fill-rule="nonzero">
        <path d="M12.068 50.704H2.556c-.832 0-1.477-.243-1.918-.722-.423-.46-.638-1.116-.638-1.95V36.208C0 34.5.908 33.56 2.556 33.56l9.512.008c1.648 0 2.556.94 2.556 2.646v11.823c0 .835-.215 1.49-.639 1.948-.441.476-1.086.718-1.917.718zM29.754 50.704h-9.512c-.832 0-1.477-.272-1.917-.809-.424-.515-.639-1.25-.639-2.185V20.098c0-1.912.908-2.966 2.556-2.966l9.512.009c1.649 0 2.556 1.053 2.556 2.966v27.61c0 .935-.214 1.67-.639 2.183-.44.533-1.086.804-1.917.804zM47.44 50.704H37.93c-.833 0-1.478-.307-1.918-.913-.424-.582-.639-1.412-.639-2.468V4.053c0-2.16.908-3.35 2.557-3.35l9.512.01c1.648 0 2.556 1.19 2.556 3.349v43.27c0 1.056-.215 1.885-.64 2.464-.44.602-1.086.908-1.916.908z"/>
    </g>
</svg>
