<svg xmlns="http://www.w3.org/2000/svg" width="50" height="50" viewBox="0 0 50 50">
    <path fill="#FFF" fill-rule="nonzero" d="M25 50c-7.93 0-14.11-2.075-18.356-6.17C2.235 39.583 0 33.247 0 25c0-8.246 2.235-14.58 6.644-18.83C10.89 2.074 17.07 0 25 0c7.93 0 14.11 2.075 18.356 6.17C47.765 10.417 50 16.753 50 25c0 8.246-2.235 14.58-6.644 18.83C39.11 47.926 32.93 50 25 50zm7.112-24.442c-1.29-1.209-3.206-1.991-5.69-2.325v-8.105c1.165.188 2.301.593 3.486 1.238l.02.011c.273.136.637.292 1.043.292a1.69 1.69 0 0 0 1.688-1.688c0-.64-.364-1.21-1.024-1.618-1.445-.895-3.259-1.467-5.215-1.661V9.789a1.422 1.422 0 1 0-2.845 0v1.913c-4.338.486-7.066 3.343-7.066 7.55 0 2.75 1.246 6.173 7.07 7.13v8.517c-1.59-.24-3.19-.892-4.771-1.947a2.151 2.151 0 0 0-1.154-.372c-.971 0-1.76.773-1.76 1.724 0 .651.276 1.161.846 1.56 1.976 1.384 4.417 2.256 6.84 2.467v1.89a1.422 1.422 0 0 0 2.845 0v-1.934c2.139-.241 3.93-.95 5.237-2.083 1.599-1.385 2.444-3.343 2.444-5.662 0-2.065-.67-3.742-1.992-4.984h-.002zm-11.06-3.928c-.723-.624-1.06-1.437-1.06-2.56 0-1.194.417-2.197 1.21-2.904.6-.537 1.409-.894 2.376-1.059v7.673c-1.103-.27-1.95-.655-2.525-1.15zm5.37 5.158c3.67.72 4.195 2.359 4.195 3.898 0 2.27-1.574 3.805-4.196 4.21v-8.108z"/>
</svg>
