<svg xmlns="http://www.w3.org/2000/svg" width="37" height="51" viewBox="0 0 37 51">
    <g fill="#FFF" fill-rule="nonzero">
        <path d="M36.075 26.488c-.034-2.766-.843-4.912-2.404-6.374C32.174 18.711 30.048 18 27.353 18H8.663c-2.7 0-4.824.712-6.314 2.118C.791 21.588 0 23.738 0 26.508v.016c0 .006.004.312.01 1.089L0 41.885c0 2.77.79 4.92 2.35 6.39 1.486 1.405 3.611 2.117 6.313 2.117h18.69c2.696 0 4.822-.708 6.318-2.114 1.558-1.463 2.37-3.608 2.405-6.374V26.506v-.018zM21.198 39.732c-.768.74-1.825 1.115-3.143 1.115-1.318 0-2.376-.375-3.144-1.115-.8-.772-1.203-1.86-1.203-3.236 0-1.374.405-2.463 1.203-3.235.769-.74 1.826-1.117 3.144-1.117s2.376.376 3.144 1.117c.805.773 1.208 1.862 1.208 3.235 0 1.374-.403 2.464-1.209 3.237v-.001z"/>
        <path d="M7.465 20.42C6.656 20.42 6 19.766 6 18.956v-7.528C6 5.124 11.462 0 18.175 0h.478c6.713 0 12.175 5.126 12.175 11.427v7.469a1.465 1.465 0 0 1-2.93 0v-7.469c0-4.685-4.147-8.499-9.245-8.499h-.478c-5.1 0-9.244 3.811-9.244 8.5v7.527a1.465 1.465 0 0 1-1.466 1.466z"/>
    </g>
</svg>
