<svg xmlns="http://www.w3.org/2000/svg" width="50" height="50" viewBox="0 0 50 50">
    <path fill="#FFF" fill-rule="nonzero" d="M25 0c7.93 0 14.11 2.075 18.356 6.17C47.765 10.417 50 16.753 50 25c0 8.246-2.235 14.58-6.644 18.83C39.11 47.926 32.93 50 25 50c-7.93 0-14.11-2.075-18.356-6.17C2.235 39.583 0 33.247 0 25c0-8.246 2.235-14.58 6.644-18.83C10.89 2.074 17.07 0 25 0zm0 5a1.5 1.5 0 0 0-1.5 1.5v18c0 .085.007.17.02.25A1.5 1.5 0 0 0 25 26.5h14a1.5 1.5 0 0 0 0-3H26.5v-17A1.5 1.5 0 0 0 25 5z"/>
</svg>
